<svg width="213" height="33" viewBox="0 0 213 33" fill="none" xmlns="http://www.w3.org/2000/svg">
<path d="M73.4546 12.886C73.4546 16.5915 72.4555 19.4282 70.454 21.3993C68.4626 23.3687 65.5855 24.3542 61.8157 24.3542H55.7858V1.85059H62.4716C65.9489 1.85059 68.6486 2.82092 70.5707 4.7582C72.4927 6.69887 73.4546 9.40701 73.4546 12.886ZM68.7652 13.0094C68.7652 8.17635 66.7451 5.76066 62.7049 5.76066H60.301V20.4137H62.2383C66.5896 20.4137 68.7635 17.9456 68.7635 13.0094H68.7652ZM80.2301 15.7193C80.2301 17.4216 80.4921 18.7114 81.0161 19.582C81.5503 20.4543 82.4141 20.8904 83.6093 20.8904C84.7926 20.8904 85.643 20.4593 86.1586 19.5972C86.6826 18.7249 86.9446 17.4334 86.9446 15.7193C86.9446 14.0153 86.6826 12.7373 86.1586 11.8869C85.6345 11.0349 84.7741 10.6089 83.5806 10.6089C82.3956 10.6089 81.5402 11.0349 81.0161 11.8869C80.4921 12.7271 80.2301 14.0051 80.2301 15.7193ZM91.4886 15.7193C91.4886 18.5204 90.7905 20.7112 89.3924 22.2918C87.9944 23.8707 86.0453 24.6619 83.5518 24.6619C81.9881 24.6619 80.6087 24.3018 79.4136 23.5833C78.2201 22.8564 77.3021 21.8134 76.6615 20.4593C76.0191 19.1053 75.6996 17.5247 75.6996 15.7193C75.6996 12.908 76.3927 10.7222 77.7822 9.1602C79.1718 7.60159 81.1243 6.82228 83.6381 6.82228C85.2017 6.82228 86.5795 7.18066 87.7746 7.89911C88.9698 8.61756 89.8877 9.64875 90.5284 10.9927C91.1708 12.3383 91.4886 13.9121 91.4886 15.7193ZM109.364 24.3542H104.921V14.3026C104.921 13.0618 104.713 12.1321 104.296 11.5167C103.878 10.8913 103.214 10.5785 102.301 10.5785C101.057 10.5785 100.159 11.018 99.6046 11.9022C99.0518 12.7744 98.7746 14.2266 98.7746 16.2568V24.3542H94.332V7.14516H97.7265L98.3232 9.34616H98.57C99.0482 8.53153 99.7587 7.87817 100.61 7.46973C101.484 7.03697 102.475 6.82228 103.582 6.82228C105.476 6.82228 106.913 7.36661 107.893 8.45359C108.873 9.53042 109.364 11.0907 109.364 13.1328V24.3542ZM123.728 24.3542L122.869 22.0146H122.751C122.005 23.0086 121.233 23.7017 120.435 24.0922C119.649 24.4725 118.621 24.6619 117.348 24.6619C115.784 24.6619 114.552 24.1885 113.647 23.2453C112.755 22.302 112.309 20.9563 112.309 19.2135C112.309 17.3878 112.91 16.0421 114.114 15.18C115.328 14.3077 117.153 13.8259 119.591 13.7329L122.418 13.6417V12.886C122.418 11.1414 121.572 10.2692 119.882 10.2692C118.58 10.2692 117.052 10.685 115.294 11.5167L113.823 8.3454C115.698 7.30913 117.776 6.79016 120.058 6.79016C122.242 6.79016 123.917 7.29392 125.083 8.29975C126.248 9.30559 126.831 10.8355 126.831 12.886V24.3542H123.728ZM122.418 16.3802L120.698 16.4428C119.407 16.4833 118.445 16.7302 117.814 17.1815C117.182 17.6329 116.868 18.3192 116.868 19.2439C116.868 20.5675 117.586 21.2285 119.023 21.2285C120.053 21.2285 120.872 20.9158 121.484 20.2903C122.107 19.6648 122.418 18.8331 122.418 17.7968V16.3802ZM138.004 20.9208C138.781 20.9208 139.711 20.7417 140.8 20.3833V23.8758C139.693 24.3998 138.333 24.6619 136.722 24.6619C134.944 24.6619 133.647 24.1885 132.833 23.2453C132.026 22.2918 131.624 20.8651 131.624 18.9667V10.6681H129.497V8.68518L131.943 7.11473L133.226 3.4819H136.066V7.14516H140.626V10.6698H136.066V18.9667C136.066 19.6327 136.241 20.1263 136.591 20.4441C136.951 20.7619 137.421 20.9208 138.004 20.9208ZM150.851 10.1627C149.91 10.1627 149.171 10.4805 148.637 11.1161C148.103 11.7416 147.797 12.6358 147.719 13.7955H153.953C153.935 12.6358 153.649 11.7433 153.095 11.1161C152.54 10.4805 151.793 10.1627 150.851 10.1627ZM151.477 24.6619C148.857 24.6619 146.806 23.8978 145.33 22.3679C143.855 20.8397 143.116 18.6742 143.116 15.8731C143.116 12.9891 143.795 10.7628 145.156 9.19232C146.525 7.61173 148.414 6.82228 150.823 6.82228C153.123 6.82228 154.914 7.51537 156.198 8.90156C157.478 10.2861 158.12 12.198 158.12 14.6407V16.9195H147.618C147.667 18.2533 148.04 19.2946 148.74 20.0435C149.438 20.7924 150.419 21.1677 151.681 21.1677C152.662 21.1677 153.59 21.0595 154.464 20.8448C155.412 20.6018 156.33 20.2561 157.202 19.8136V23.4447C156.425 23.8555 155.597 24.1581 154.711 24.3542C153.828 24.5588 152.75 24.6619 151.477 24.6619ZM166.874 12.4397H168.361C169.749 12.4397 170.787 12.1523 171.477 11.5776C172.167 10.9927 172.511 10.1474 172.511 9.03849C172.511 7.9194 172.221 7.09444 171.637 6.56025C171.064 6.02775 170.162 5.76066 168.928 5.76066H166.874V12.4397ZM177.071 8.86944C177.071 11.2902 176.352 13.143 174.915 14.426C173.487 15.7091 171.453 16.3498 168.813 16.3498H166.874V24.3542H162.358V1.85059H169.161C171.744 1.85059 173.707 2.44056 175.045 3.62051C176.396 4.79032 177.071 6.53997 177.071 8.86944ZM189.702 24.3542L188.843 22.0146H188.727C187.979 23.0086 187.207 23.7017 186.411 24.0922C185.624 24.4725 184.595 24.6619 183.322 24.6619C181.758 24.6619 180.526 24.1885 179.622 23.2453C178.729 22.302 178.283 20.9563 178.283 19.2135C178.283 17.3878 178.885 16.0421 180.088 15.18C181.302 14.3077 183.128 13.8259 185.565 13.7329L188.392 13.6417V12.886C188.392 11.1414 187.547 10.2692 185.858 10.2692C184.556 10.2692 183.026 10.685 181.268 11.5167L179.797 8.3454C181.672 7.30913 183.75 6.79016 186.032 6.79016C188.216 6.79016 189.891 7.29392 191.058 8.29975C192.222 9.30559 192.806 10.8355 192.806 12.886V24.3542H189.702ZM188.392 16.3802L186.673 16.4428C185.381 16.4833 184.419 16.7302 183.789 17.1815C183.156 17.6329 182.842 18.3192 182.842 19.2439C182.842 20.5675 183.56 21.2285 184.997 21.2285C186.027 21.2285 186.847 20.9158 187.459 20.2903C188.081 19.6648 188.392 18.8331 188.392 17.7968V16.3802ZM194.787 7.14516H199.652L202.725 16.8265C202.987 17.6684 203.167 18.6641 203.265 19.8136H203.353C203.45 18.7978 203.66 17.796 203.978 16.8265L206.994 7.14516H211.756L204.867 26.5552C204.235 28.3505 203.332 29.6944 202.157 30.587C200.993 31.4796 199.627 31.9258 198.065 31.9258C197.297 31.9258 196.545 31.8396 195.806 31.6655V27.9397C196.34 28.0749 196.924 28.1409 197.554 28.1409C198.34 28.1409 199.025 27.8839 199.608 27.37C200.2 26.8679 200.661 26.1022 200.993 25.0777L201.255 24.2308L194.787 7.14516Z" fill="white"/>
<path d="M35.6065 10.2492C35.6096 9.84149 35.7744 9.45171 36.0648 9.16548C36.3551 8.87925 36.7472 8.71999 37.1549 8.72269C37.5626 8.71999 37.9547 8.87925 38.2451 9.16548C38.5354 9.45171 38.7003 9.84149 38.7034 10.2492C38.7003 10.6569 38.5354 11.0467 38.2451 11.3329C37.9547 11.6191 37.5626 11.7784 37.1549 11.7757C36.7472 11.7784 36.3551 11.6191 36.0648 11.3329C35.7744 11.0467 35.6096 10.6569 35.6065 10.2492ZM32.2526 13.5575C32.2539 13.3554 32.295 13.1557 32.3735 12.9695C32.4521 12.7834 32.5665 12.6146 32.7103 12.4726C32.8541 12.3307 33.0244 12.2185 33.2116 12.1425C33.3987 12.0664 33.599 12.0279 33.801 12.0293C34.2087 12.027 34.6007 12.1867 34.8907 12.4732C35.1807 12.7598 35.3451 13.1498 35.3478 13.5575C35.3447 13.9649 35.1801 14.3544 34.8901 14.6406C34.6001 14.9267 34.2085 15.0862 33.801 15.084C33.3933 15.0867 33.0012 14.9274 32.7109 14.6412C32.4205 14.3549 32.2557 13.9652 32.2526 13.5575ZM40.5088 12.0293C40.3068 12.0279 40.1065 12.0664 39.9194 12.1425C39.7322 12.2185 39.5619 12.3307 39.4181 12.4726C39.2743 12.6146 39.1599 12.7834 39.0813 12.9695C39.0028 13.1557 38.9617 13.3554 38.9604 13.5575C38.9604 14.401 39.6535 15.084 40.5088 15.084C40.9166 15.0867 41.3087 14.9274 41.599 14.6412C41.8894 14.3549 42.0542 13.9652 42.0573 13.5575C42.056 13.3554 42.0149 13.1557 41.9364 12.9695C41.8578 12.7834 41.7434 12.6146 41.5996 12.4726C41.4558 12.3307 41.2855 12.2185 41.0983 12.1425C40.9112 12.0664 40.7109 12.0279 40.5088 12.0293ZM35.6065 16.8657C35.6078 16.6637 35.6489 16.4639 35.7274 16.2778C35.806 16.0917 35.9204 15.9228 36.0642 15.7809C36.208 15.639 36.3783 15.5268 36.5655 15.4507C36.7526 15.3747 36.9529 15.3362 37.1549 15.3375C37.357 15.3362 37.5573 15.3747 37.7444 15.4507C37.9316 15.5268 38.1019 15.639 38.2457 15.7809C38.3895 15.9228 38.5039 16.0917 38.5824 16.2778C38.661 16.4639 38.7021 16.6637 38.7034 16.8657C38.7003 17.2734 38.5354 17.6632 38.2451 17.9494C37.9547 18.2357 37.5626 18.3949 37.1549 18.3922C36.7472 18.3949 36.3551 18.2357 36.0648 17.9494C35.7744 17.6632 35.6096 17.2734 35.6065 16.8657Z" fill="white"/>
<path fill-rule="evenodd" clip-rule="evenodd" d="M26.5472 19.3876L26.5523 19.3927L26.5557 19.3994C28.9663 22.8311 32.0278 25.5173 37.0265 25.5173C43.6413 25.5173 49.0238 20.2092 49.0238 13.6839C49.0238 7.16713 43.6312 1.85059 37.0265 1.85059C33.3497 1.85059 30.503 3.40244 28.4051 5.55104C26.3511 7.6523 24.9092 10.2641 23.4875 12.8421L23.3455 13.1007C21.8917 15.7328 20.4226 18.3023 18.6831 20.0959C17.8142 20.9918 16.8963 21.7272 15.8093 22.2327C14.719 22.7415 13.4849 23.0103 11.9973 23.0103C6.75683 23.0103 2.54417 18.8534 2.54417 13.6839C2.54417 8.5398 6.78219 4.35925 11.9973 4.35925C16.2303 4.35925 18.7457 6.72254 20.8503 9.88035C21.2949 9.10949 21.7683 8.32511 22.2703 7.53059C19.8868 4.31699 16.8371 1.85228 11.9973 1.85228C5.38248 1.85059 0 7.15868 0 13.6839C0 20.199 5.39262 25.5173 11.9973 25.5173C15.6403 25.5173 18.4854 23.9654 20.563 21.8168C21.966 20.3681 23.0784 18.6691 24.1011 16.9009L24.5745 16.081L25.0089 16.9212C25.3385 17.5585 25.9792 18.6235 26.5472 19.3876ZM27.641 16.5307L27.646 16.5374C29.8606 20.1466 32.4538 23.0086 37.0265 23.0086C42.2416 23.0086 46.4813 18.828 46.4813 13.6839C46.4813 8.51275 42.2687 4.35925 37.0265 4.35925C33.9718 4.35925 32.0058 5.4513 30.2308 7.27025C28.782 8.75111 27.4415 11.0857 26.2582 13.1818L26.1669 13.3441L26.2007 13.5267C26.2801 13.9257 26.5506 14.5055 26.8194 15.0295C27.1 15.5756 27.4178 16.1368 27.6376 16.5222L27.641 16.5307Z" fill="white"/>
<path d="M10.836 9.48438H12.9017V12.5391H15.997V14.5727H12.9017V17.6257H10.836V14.5744H7.74072V12.5391H10.836V9.48438Z" fill="white"/>
</svg>
