<svg width="203" height="72" viewBox="0 0 203 72" fill="none" xmlns="http://www.w3.org/2000/svg">
<g clip-path="url(#clip0_2761_33)">
<path fill-rule="evenodd" clip-rule="evenodd" d="M30.9 28.3V13.5C30.9 9.3 28.6 7.3 24.9 7.3C21.8 7.3 19 9.2 17.8 11C17 8.7 15.1 7.3 12.1 7.3C9 7.3 6.2 9.3 5.4 10.5V7.8H0V28.3H5.4V14.5C6.2 13.4 7.8 12.1 9.6 12.1C11.8 12.1 12.7 13.5 12.7 15.4V28.4H18.1V14.5C18.9 13.4 20.4 12.1 22.3 12.1C24.5 12.1 25.4 13.5 25.4 15.4V28.4H30.9V28.3ZM45.7 28.8C38.9 28.8 34.9 23.9 34.9 18C34.9 12.2 39 7.3 45.7 7.3C52.5 7.3 56.6 12.2 56.6 18C56.6 23.9 52.5 28.8 45.7 28.8ZM45.7 24C49.1 24 51 21.2 51 18C51 14.8 49.1 12.1 45.7 12.1C42.3 12.1 40.5 14.9 40.5 18C40.5 21.3 42.4 24 45.7 24ZM79.8 28.3V13.8C79.8 9.8 77.6 7.3 73.1 7.3C69.7 7.3 67.2 8.9 65.9 10.5V7.8H60.5V28.3H66V14.5C66.9 13.3 68.5 12.1 70.7 12.1C73 12.1 74.5 13.1 74.5 15.9V28.3H79.8ZM94.7 28.8C87.9 28.8 83.9 23.9 83.9 18C83.9 12.2 88 7.3 94.7 7.3C101.5 7.3 105.6 12.2 105.6 18C105.6 23.9 101.5 28.8 94.7 28.8ZM94.7 24C98.1 24 100 21.2 100 18C100 14.8 98.1 12.1 94.7 12.1C91.3 12.1 89.5 14.9 89.5 18C89.5 21.3 91.3 24 94.7 24ZM115 21.8C115.9 23.1 117.9 24.1 119.6 24.1C122.7 24.1 124.8 21.7 124.8 18.2C124.8 14.6 122.7 12.2 119.6 12.2C117.9 12.2 115.9 13.2 115 14.6V21.8ZM115 28.3H109.6V0H115V10.5C116.6 8.4 118.9 7.4 121.3 7.4C126.5 7.4 130.4 11.5 130.4 18.2C130.4 25 126.5 28.9 121.3 28.9C118.8 28.9 116.6 27.8 115 25.8V28.3ZM152.2 28.3H146.8V26.2C145.4 27.9 143 28.8 140.3 28.8C137 28.8 133.2 26.6 133.2 22C133.2 17.2 137.1 15.4 140.3 15.4C143 15.4 145.4 16.3 146.8 17.9V15.1C146.8 13 145 11.7 142.3 11.7C140.1 11.7 138.1 12.5 136.3 14.1L134.3 10.5C136.8 8.3 140 7.3 143.3 7.3C148 7.3 152.3 9.2 152.3 15.1V28.3H152.2ZM142.4 25.2C144.1 25.2 145.8 24.6 146.7 23.4V20.9C145.8 19.7 144.1 19.1 142.4 19.1C140.3 19.1 138.5 20.2 138.5 22.2C138.6 24.1 140.3 25.2 142.4 25.2ZM176.8 28.3V13.8C176.8 9.8 174.6 7.3 170.1 7.3C166.7 7.3 164.2 8.9 162.9 10.5V7.8H157.5V28.3H162.9V14.5C163.8 13.3 165.4 12.1 167.6 12.1C169.9 12.1 171.4 13.1 171.4 15.9V28.3H176.8ZM202.2 28.3L193.8 17.1L201.9 7.8H195.3L187.5 16.9V0H182.1V28.3H187.5V23L190 20.4L195.4 28.3H202.2Z" fill="white"/>
<g opacity="0.6">
<path fill-rule="evenodd" clip-rule="evenodd" d="M187.9 50.7998H191.8V63.0998H192L197 57.1998H200.6L195.1 63.5998L201.7 71.5998H197.3L191.9 64.0998H191.8V71.5998H187.9V50.7998Z" fill="white"/>
<path fill-rule="evenodd" clip-rule="evenodd" d="M4.7001 51.7998V63.1998C4.7001 67.0998 5.9001 69.1998 9.1001 69.1998C12.2001 69.1998 13.4001 66.5998 13.4001 63.3998V51.7998H17.0001V64.1998C17.0001 69.1998 13.7001 72.0998 8.9001 72.0998C3.4001 72.0998 0.600098 69.4998 0.600098 63.9998V51.7998H4.7001Z" fill="white"/>
<path fill-rule="evenodd" clip-rule="evenodd" d="M25.6 59.0996C26.9 57.6996 28.7 57.0996 30.5 57.0996C33.9 57.0996 35.7001 58.8996 35.7001 62.4996V71.6996H31.9V62.9996C31.9 60.9996 31 59.6996 29 59.6996C27.1 59.6996 25.6 60.8996 25.6 63.2996V71.7996H21.8V57.3996H25.6V59.0996Z" fill="white"/>
<path fill-rule="evenodd" clip-rule="evenodd" d="M40.2001 71.7H44V57.4H40.2001V71.7ZM39.8 53.2C39.8 52.1 40.7 51 42 51C43.3 51 44.4001 52.1 44.4001 53.2C44.4001 54.4 43.5 55.6 42.1 55.6C40.8 55.6 39.8 54.4 39.8 53.2Z" fill="white"/>
<path fill-rule="evenodd" clip-rule="evenodd" d="M52.5001 71.6994L46.4001 57.3994H50.5001C51.7001 60.6994 53.0001 63.6994 54.2001 67.6994H54.3001C55.6001 63.6994 56.8001 60.6994 58.2001 57.3994H61.8001L55.3001 71.6994H52.5001Z" fill="white"/>
<path fill-rule="evenodd" clip-rule="evenodd" d="M73.1 62.8002C73.3 60.6002 72.5 59.2002 70.6 59.2002C68.4 59.2002 67.4 60.9002 67.5 62.8002H73.1ZM67.4001 64.9002C67.3001 67.6002 69.2 69.6002 71.6 69.6002C73 69.6002 74.5 69.1002 75.5 68.5002L76.6 70.5002C74.6 71.6002 72.6001 72.1002 70.9001 72.1002C66.5001 72.1002 63.3 69.1002 63.3 64.4002C63.3 60.0002 66.5 57.2002 70.7 57.2002C75.2 57.2002 77.1001 60.8002 76.8001 65.0002H67.4001V64.9002Z" fill="white"/>
<path fill-rule="evenodd" clip-rule="evenodd" d="M84.3 59.8996L85.1 58.7996C85.5 58.1996 86.4 57.0996 87.6 57.0996C88.5 57.0996 89.4 57.5996 90.2 58.3996L88.8 60.9996C88.2 60.6996 87.8 60.4996 87 60.4996C85.7 60.4996 84.4 61.5996 84.4 64.5996V71.5996H80.5V57.3996H84.3V59.8996Z" fill="white"/>
<path fill-rule="evenodd" clip-rule="evenodd" d="M100.5 60.1002C99.6 59.5002 98.7 59.2002 98 59.2002C97.1 59.2002 96.3 59.7002 96.3 60.6002C96.3 61.7002 97.7 62.4002 99.3 63.6002C101.4 65.1002 102 66.6002 102 67.9002C102 69.9002 99.8 72.0002 96.6 72.0002C94.6 72.0002 93.1 71.3002 91.8 70.4002L93 68.4002C93.9 69.1002 95.1 69.8002 96.1 69.8002C97.2 69.8002 98.2 69.2002 98.2 68.0002C98.2 66.7002 96.7 65.9002 95.3 65.0002C93.7 63.9002 92.5 62.8002 92.5 61.1002C92.5 58.8002 94.7 57.2002 97.5 57.2002C99.1 57.2002 100.6 57.6002 101.7 58.5002L100.5 60.1002Z" fill="white"/>
<path fill-rule="evenodd" clip-rule="evenodd" d="M111.4 64.1002C109.5 64.7002 108.6 65.7002 108.6 67.4002C108.6 68.7002 109.4 69.5002 110.3 69.5002C111.8 69.5002 113.8 67.6002 113.5 63.4002L111.4 64.1002ZM112.6 70.3002C111.6 71.2002 110.2 72.0002 108.9 72.0002C106.6 72.0002 104.8 70.3002 104.8 67.7002C104.8 65.0002 106.8 63.5002 110.1 62.5002L113.5 61.5002C113.3 60.2002 112.1 59.4002 110.9 59.4002C109.2 59.4002 108.1 60.0002 107.1 60.9002L105.9 59.1002C107.7 57.7002 109.5 57.2002 111.4 57.2002C114.1 57.2002 117.3 58.0002 117.3 62.5002V68.3002C117.3 69.4002 117.4 70.8002 117.9 71.8002H113.8C113.5 71.3002 113.4 70.5002 113.4 69.7002L112.6 70.3002Z" fill="white"/>
<path fill-rule="evenodd" clip-rule="evenodd" d="M121.6 71.6998H125.4V50.7998H121.6V71.6998Z" fill="white"/>
<path fill-rule="evenodd" clip-rule="evenodd" d="M159.5 64.1002C157.6 64.7002 156.7 65.7002 156.7 67.4002C156.7 68.7002 157.5 69.5002 158.4 69.5002C159.9 69.5002 161.9 67.6002 161.6 63.4002L159.5 64.1002ZM160.7 70.3002C159.7 71.2002 158.3 72.0002 157 72.0002C154.8 72.0002 152.9 70.3002 152.9 67.7002C152.9 65.0002 154.9 63.5002 158.2 62.5002L161.6 61.5002C161.4 60.2002 160.2 59.4002 159 59.4002C157.4 59.4002 156.2 60.0002 155.2 60.9002L154 59.1002C155.8 57.7002 157.6 57.2002 159.5 57.2002C162.2 57.2002 165.4 58.0002 165.4 62.5002V68.3002C165.4 69.4002 165.5 70.8002 166 71.8002H161.9C161.6 71.3002 161.5 70.5002 161.5 69.7002L160.7 70.3002Z" fill="white"/>
<path fill-rule="evenodd" clip-rule="evenodd" d="M173.5 59.0996C174.8 57.6996 176.6 57.0996 178.4 57.0996C181.8 57.0996 183.6 58.8996 183.6 62.4996V71.6996H179.8V62.9996C179.8 60.9996 178.9 59.6996 176.9 59.6996C175 59.6996 173.6 60.8996 173.6 63.2996V71.7996H169.8V57.3996H173.6V59.0996H173.5Z" fill="white"/>
<path fill-rule="evenodd" clip-rule="evenodd" d="M139.5 69.2998H141.6C143.9 69.2998 145.6 68.0998 145.6 65.8998C145.6 63.5998 143.8 62.5998 141.6 62.5998H139.5V69.2998ZM139.5 60.0998H140.8C143.1 60.0998 144.7 58.5998 144.7 56.7998C144.7 54.9998 143.4 54.2998 141.6 54.2998H139.5V60.0998ZM135.4 71.6998V51.7998H142.7C146.1 51.7998 148.5 53.2998 148.5 55.9998C148.5 59.1998 145.9 60.4998 144.5 60.8998V60.9998C147 61.0998 149.8 62.7998 149.8 65.8998C149.8 69.2998 146.9 71.7998 142.1 71.7998H135.4V71.6998Z" fill="white"/>
</g>
</g>
<defs>
<clipPath id="clip0_2761_33">
<rect width="202.2" height="72" fill="white"/>
</clipPath>
</defs>
</svg>
