<svg width="102" height="49" viewBox="0 0 102 49" fill="none" xmlns="http://www.w3.org/2000/svg">
<path d="M0.00341797 0H49.0034V49H0.00341797V0Z" fill="#15008F"/>
<path d="M52.1436 0H101.144V49H52.1436V0Z" fill="#DD002E"/>
<path d="M14.9233 15.8304C15.516 16.9603 16.4087 17.9049 17.5033 18.5604C17.7374 18.7075 17.9101 18.9346 17.9892 19.1995C18.0683 19.4644 18.0484 19.749 17.9333 20.0004C17.6533 20.7104 17.1033 21.7404 17.3733 22.1704C17.7366 22.4316 18.1644 22.5883 18.6104 22.6235C19.0564 22.6588 19.5035 22.5712 19.9033 22.3704C20.07 22.7339 20.257 23.0878 20.4633 23.4304C20.3704 23.535 20.2458 23.6064 20.1086 23.6334C19.9713 23.6605 19.829 23.6419 19.7033 23.5804C19.8309 23.692 19.9099 23.849 19.9235 24.018C19.937 24.1869 19.884 24.3545 19.7757 24.4849C19.6674 24.6154 19.5125 24.6984 19.3439 24.7162C19.1753 24.734 19.0065 24.6853 18.8733 24.5804C18.7798 24.5083 18.7105 24.4093 18.6748 24.2967C18.639 24.1841 18.6385 24.0633 18.6733 23.9504C18.4912 24.2339 18.2257 24.454 17.9133 24.5804C17.7464 24.455 17.6229 24.2806 17.5602 24.0816C17.4974 23.8825 17.4985 23.6688 17.5633 23.4704C17.4248 23.7148 17.2318 23.9239 16.9995 24.0817C16.7671 24.2395 16.5015 24.3417 16.2233 24.3804C16.0528 24.1271 15.9747 23.8229 16.002 23.5188C16.0293 23.2147 16.1604 22.9293 16.3733 22.7104C16.1654 22.8657 15.9213 22.9655 15.6642 23.0005C15.407 23.0355 15.1452 23.0045 14.9033 22.9104C14.9033 22.9104 14.7533 22.4304 15.6133 21.7204C15.3305 21.7103 15.0547 21.629 14.8117 21.4839C14.5687 21.3388 14.3663 21.1346 14.2233 20.8904C14.4257 20.7217 14.6607 20.5965 14.9136 20.5225C15.1665 20.4485 15.4319 20.4274 15.6933 20.4604C15.392 20.366 15.1221 20.1914 14.9125 19.9554C14.7029 19.7193 14.5614 19.4307 14.5033 19.1204C14.7889 18.9916 15.106 18.9495 15.4153 18.9992C15.7246 19.049 16.0125 19.1885 16.2433 19.4004C16.0607 19.1408 15.8493 18.9026 15.6133 18.6904C15.2712 18.3037 15.0301 17.8383 14.9115 17.3358C14.7928 16.8333 14.8003 16.3093 14.9333 15.8104L14.9233 15.8304ZM18.8533 27.2904C18.6992 27.1299 18.58 26.9392 18.5033 26.7304C18.6533 28.1204 18.7033 29.0304 19.5033 29.9404C19.7985 29.3151 19.852 28.6027 19.6533 27.9404C19.515 27.8635 19.3713 27.7966 19.2233 27.7404C19.3255 28.1284 19.3527 28.5323 19.3033 28.9304C19.0774 28.4158 18.9324 27.8693 18.8733 27.3104L18.8533 27.2904ZM17.6133 27.1604C17.4592 26.9999 17.34 26.8092 17.2633 26.6004C17.1833 27.4304 16.9833 29.5304 17.6933 30.1704C17.6933 30.1704 18.1733 29.8204 18.3233 26.7304C18.1733 26.8804 18.1233 27.0804 17.9733 27.2104C18.045 27.775 17.9763 28.3487 17.7733 28.8804C17.7733 28.8804 17.4233 28.7004 17.6233 27.1604H17.6133ZM15.9333 28.7804C16.5633 28.0704 16.6933 25.9204 16.6933 25.9204L16.9733 25.7204L17.0533 25.6404V25.8404C17.0522 26.9607 16.8629 28.0728 16.4933 29.1304C16.2083 29.5474 15.8277 29.8903 15.3833 30.1304C14.6733 28.9404 15.5333 27.3204 16.2133 26.1304L16.4933 25.9804C16.2133 26.9804 15.7333 27.9804 15.9333 28.7904V28.7804ZM14.2633 25.0704C14.2528 25.1706 14.2815 25.2709 14.3433 25.3504V25.4304C13.6734 26.127 13.0645 26.8797 12.5233 27.6804C12.2671 28.0217 11.9409 28.3044 11.5667 28.5096C11.1925 28.7148 10.7788 28.8378 10.3533 28.8704C10.4435 27.9301 10.8325 27.0435 11.4633 26.3404C12.151 25.588 12.9227 24.9169 13.7633 24.3404C13.9851 24.4432 14.2342 24.4712 14.4733 24.4204H14.5533C14.46 24.5133 14.4062 24.6387 14.4033 24.7704C13.3368 25.2598 12.4241 26.0308 11.7633 27.0004C11.6333 27.1004 12.5933 26.8204 14.2133 25.0804L14.2633 25.0704ZM13.1533 23.9704L13.2333 23.8904L13.3133 23.8104C12.7533 24.0104 10.7833 24.8104 10.1533 25.0704C9.66276 25.3429 9.23266 25.712 8.88896 26.1555C8.54516 26.5989 8.29486 27.1075 8.15326 27.6504C8.58046 27.687 9.01076 27.6387 9.41916 27.5082C9.82766 27.3778 10.2063 27.1678 10.5333 26.8904C11.6433 25.9804 12.9133 24.7204 13.3933 24.3104L13.2433 24.1604C12.3221 24.9103 11.315 25.5481 10.2433 26.0604C10.4776 25.6253 10.8226 25.2597 11.2433 25.0004C11.8467 24.5532 12.5235 24.2148 13.2433 24.0004L13.1533 23.9704ZM12.0033 23.0004L12.0833 22.8504C11.4533 23.0004 9.83326 23.2004 9.08326 23.4104C8.48446 23.5702 7.92546 23.8527 7.44176 24.24C6.95796 24.6274 6.56006 25.1111 6.27326 25.6604C6.27326 25.6604 7.38326 26.0104 9.56326 25.0304C10.5915 24.4895 11.6657 24.0411 12.7733 23.6904C12.5227 23.6904 12.277 23.6212 12.0633 23.4904C11.0747 23.972 10.0009 24.254 8.90326 24.3204C9.24336 24.0751 9.61286 23.8735 10.0033 23.7204C10.6323 23.3864 11.3058 23.144 12.0033 23.0004ZM12.0033 22.0004C12.2033 22.0857 12.4163 22.1364 12.6333 22.1504C12.4725 22.2438 12.3274 22.3619 12.2033 22.5004C10.827 22.846 9.42036 23.057 8.00326 23.1304C6.93076 23.2817 5.83866 23.2137 4.79326 22.9304C5.64566 22.4437 6.56576 22.0864 7.52326 21.8704C8.28326 21.7204 10.3833 21.7204 11.3633 21.5904C11.4505 21.6653 11.5442 21.7322 11.6433 21.7904C10.5235 21.7972 9.41226 21.9863 8.35326 22.3504C9.58106 22.4904 10.8245 22.3712 12.0033 22.0004ZM11.8733 20.7404C12.0116 20.6635 12.1553 20.5966 12.3033 20.5404C10.768 20.0096 9.17216 19.6737 7.55326 19.5404C6.40616 19.4011 5.24386 19.4518 4.11326 19.6904C5.08176 20.3267 6.14976 20.7965 7.27326 21.0804C8.61896 21.2943 9.98546 21.3447 11.3433 21.2304C11.4208 21.1019 11.5149 20.9842 11.6233 20.8804C10.3235 20.8729 9.03106 20.6844 7.78326 20.3204C9.16276 20.2131 10.5505 20.3485 11.8833 20.7204L11.8733 20.7404ZM11.8833 19.4804C12.024 19.9064 12.3205 20.2636 12.7133 20.4804C11.1733 19.8504 8.23326 19.4204 6.62326 18.8104C4.45326 17.9004 4.09326 16.8104 4.09326 16.8104C5.64046 16.8224 7.17616 17.0789 8.64326 17.5704C10.0333 18.0004 12.0833 18.7604 12.8433 19.1104C12.5436 19.1111 12.2522 19.2094 12.0133 19.3904C11.2533 19.0404 10.3933 18.8304 9.63326 18.5604C9.07276 18.3692 8.48546 18.2679 7.89326 18.2604C8.41946 18.5759 8.97966 18.8309 9.56326 19.0204C10.3433 19.2204 11.1033 19.3704 11.8933 19.5304L11.8833 19.4804ZM11.8133 17.9104C11.8933 18.0604 12.0133 18.2604 12.0933 18.3904C9.84846 17.9137 7.81756 16.7247 6.30326 15.0004C5.80236 14.1547 5.60486 13.1635 5.74326 12.1904C6.84816 12.6915 7.84376 13.405 8.67326 14.2904C9.51326 15.1819 10.4265 16.0014 11.4033 16.7404L11.6833 17.5704C10.9233 16.9404 9.94326 16.2304 9.38326 15.7504C8.82596 15.3184 8.21396 14.962 7.56326 14.6904C7.90036 15.1166 8.27156 15.5146 8.67326 15.8804C9.19116 16.3085 9.75066 16.6837 10.3433 17.0004C10.7877 17.3744 11.2912 17.6718 11.8333 17.8804" fill="white"/>
<path d="M18.5632 24.5004L18.7632 24.3004C19.0432 24.6504 19.2432 25.0104 19.4732 25.3604C19.615 25.773 19.7319 26.1938 19.8232 26.6204C19.8981 27.0386 20.0435 27.441 20.2532 27.8104C20.0655 27.8139 19.8793 27.7774 19.7068 27.7033C19.5344 27.6291 19.3797 27.5191 19.2532 27.3804C18.9198 26.953 18.7028 26.4466 18.6232 25.9104C18.4865 25.4497 18.4591 24.9635 18.5432 24.4904L18.5632 24.5004ZM17.5432 24.5704L17.7432 24.7704L17.8232 24.8504H17.9032L18.1032 24.7704C18.1947 24.9434 18.246 25.1348 18.2532 25.3304C18.3287 25.6797 18.3287 26.0411 18.2532 26.3904C18.1587 26.7001 17.9945 26.984 17.7732 27.2204C17.5701 26.997 17.4077 26.7397 17.2932 26.4604C17.1412 26.0782 17.1412 25.6525 17.2932 25.2704C17.3932 24.9704 17.4732 24.7604 17.5432 24.5604V24.5704ZM16.2832 24.6104C16.6088 24.5629 16.9197 24.4434 17.1932 24.2604C17.2431 24.3437 17.2759 24.4362 17.2896 24.5323C17.3034 24.6285 17.2978 24.7264 17.2732 24.8204C17.1781 25.1093 17.0133 25.3704 16.7932 25.5804C16.5923 25.754 16.3589 25.8858 16.1065 25.9682C15.8541 26.0506 15.5878 26.082 15.3232 26.0604C15.2232 26.1104 15.0932 25.6804 16.3232 24.6204L16.2832 24.6104ZM15.8432 23.8604C15.8723 24.0934 15.9698 24.3126 16.1232 24.4904C15.9505 24.7713 15.7024 24.998 15.4072 25.1448C15.1119 25.2915 14.7814 25.3524 14.4532 25.3204C14.3752 25.1223 14.3764 24.9018 14.4564 24.7045C14.5365 24.5072 14.6893 24.3482 14.8832 24.2604C15.2132 24.1304 15.4932 23.9804 15.8832 23.8604" fill="white"/>
<path d="M16.0034 23.1603C15.6541 23.2358 15.2927 23.2358 14.9434 23.1603H14.7934V23.0003C14.2334 23.4303 13.6834 23.4803 13.4534 23.9103C13.5649 24.0665 13.717 24.1892 13.8933 24.265C14.0696 24.3408 14.2633 24.3669 14.4534 24.3403C14.7533 24.3152 15.0449 24.2286 15.3099 24.0858C15.5748 23.9429 15.8075 23.7471 15.9934 23.5103C15.9636 23.4568 15.948 23.3965 15.948 23.3353C15.948 23.2741 15.9636 23.2138 15.9934 23.1603H16.0034ZM14.8034 22.5303C14.8737 22.3184 14.9937 22.1264 15.1534 21.9703C14.6932 21.8946 14.2236 21.8946 13.7634 21.9703C13.4012 21.9675 13.0477 22.0818 12.7558 22.2963C12.4639 22.5107 12.249 22.8138 12.1434 23.1603C12.4772 23.3586 12.8714 23.4297 13.2534 23.3603C13.5538 23.337 13.846 23.2511 14.1112 23.1082C14.3764 22.9652 14.6088 22.7684 14.7934 22.5303H14.8034ZM14.5134 21.5303C14.3578 21.3534 14.2142 21.1663 14.0834 20.9703L14.0034 20.8603C13.4839 20.6076 12.8897 20.5542 12.3334 20.7103C11.9899 20.8136 11.6952 21.0372 11.5034 21.3403C11.8956 21.6372 12.3566 21.8299 12.8434 21.9003C13.4212 21.9762 14.0079 21.8603 14.5134 21.5703V21.5303ZM14.6634 20.4303C14.7434 20.3503 14.8634 20.3503 15.0134 20.3503C14.7227 20.0625 14.5273 19.6926 14.4534 19.2903C14.0839 19.3769 13.6967 19.349 13.3434 19.2103C13.1474 19.1387 12.9372 19.115 12.7302 19.1411C12.5232 19.1672 12.3255 19.2423 12.1534 19.3603C12.2262 19.5965 12.3644 19.8074 12.552 19.9684C12.7395 20.1294 12.9689 20.2341 13.2134 20.2703C13.425 20.406 13.6655 20.4902 13.9156 20.5163C14.1656 20.5423 14.4183 20.5095 14.6534 20.4203L14.6634 20.4303ZM14.3434 19.0003L14.4934 18.9203C14.6664 18.8288 14.8578 18.7775 15.0534 18.7703C14.5943 18.376 14.1025 18.0213 13.5834 17.7103C12.9902 17.3663 12.3502 17.1103 11.6834 16.9503C11.8715 17.5235 12.182 18.049 12.5934 18.4903C12.8012 18.737 13.077 18.9169 13.3865 19.0076C13.696 19.0983 14.0254 19.0958 14.3334 19.0003H14.3434ZM15.2434 18.5203C15.0121 18.1854 14.849 17.8082 14.7634 17.4103C14.6134 16.9303 14.4834 16.3503 14.2834 15.8703C13.9347 15.2328 13.3549 14.7533 12.6634 14.5303C12.5091 15.2009 12.5794 15.9036 12.8634 16.5303C13.4812 17.3816 14.2984 18.0683 15.2434 18.5303V18.5203ZM20.7034 23.5303C20.828 23.6497 20.9738 23.7447 21.1334 23.8103C21.2266 24.0242 21.268 24.257 21.2541 24.4899C21.2402 24.7228 21.1714 24.9491 21.0534 25.1503C20.7137 25.7542 20.4356 26.3907 20.2234 27.0503C20.2234 27.0503 20.0234 27.0503 19.7934 25.8603C19.7233 25.4186 19.5291 25.0059 19.2334 24.6703C19.3633 24.7527 19.5104 24.804 19.6634 24.8203H19.8134L19.8934 24.6703C20.0174 24.4555 20.0699 24.2069 20.0434 23.9603V23.7603C20.1639 23.7853 20.289 23.7771 20.4052 23.7366C20.5214 23.6961 20.6245 23.6248 20.7034 23.5303Z" fill="white"/>
<path d="M12.3932 15V15.63C11.8332 14.92 11.1332 14.01 10.3932 13.18C10.0484 12.7204 9.62928 12.3216 9.15318 12C9.43608 12.8809 9.94258 13.6733 10.6232 14.3C11.1672 14.8526 11.7486 15.3672 12.3632 15.84L12.4432 16.04C12.5232 16.24 12.5932 16.47 12.6432 16.6C12.7943 16.8777 12.9827 17.1334 13.2032 17.36C13.0032 17.28 12.7732 17.16 12.5732 17.08H12.3932C10.6392 16.0855 9.18768 14.634 8.19318 12.88C7.69978 11.6613 7.63278 10.3116 8.00318 9.05C8.91128 9.8736 9.73228 10.7884 10.4532 11.78C11.1908 12.7959 11.8398 13.8731 12.3932 15ZM37.0932 20.74C36.9549 20.6631 36.8112 20.5962 36.6632 20.54C38.1985 20.0092 39.7943 19.6733 41.4132 19.54C42.5603 19.4007 43.7226 19.4514 44.8532 19.69C43.8847 20.3263 42.8167 20.7961 41.6932 21.08C40.3475 21.2939 38.981 21.3443 37.6232 21.23C37.5457 21.1015 37.4516 20.9838 37.3432 20.88C38.643 20.8725 39.9354 20.684 41.1832 20.32C39.8037 20.2127 38.416 20.3481 37.0832 20.72L37.0932 20.74ZM37.0832 19.48C36.9425 19.906 36.646 20.2632 36.2532 20.48C37.7932 19.85 40.7332 19.42 42.3432 18.81C44.5132 17.9 44.8732 16.81 44.8732 16.81C43.326 16.822 41.7903 17.0785 40.3232 17.57C38.9332 18 36.8832 18.76 36.1232 19.11C36.4229 19.1107 36.7143 19.209 36.9532 19.39C37.7132 19.04 38.5732 18.83 39.3332 18.56C39.8977 18.3876 40.4831 18.2934 41.0732 18.28C40.547 18.5955 39.9868 18.8505 39.4032 19.04C38.6232 19.22 37.8632 19.37 37.0732 19.52L37.0832 19.48ZM37.2232 17.9C37.1432 18.05 37.0232 18.25 36.9432 18.38C39.2048 17.9161 41.2543 16.7299 42.7832 15C43.2841 14.1543 43.4816 13.1631 43.3432 12.19C42.2383 12.6911 41.2427 13.4046 40.4132 14.29C39.5793 15.1877 38.6655 16.0077 37.6832 16.74L37.4032 17.57C38.1632 16.94 39.1432 16.23 39.7032 15.75C40.2605 15.318 40.8725 14.9616 41.5232 14.69C41.1861 15.1162 40.8149 15.5141 40.4132 15.88C39.8921 16.3086 39.3293 16.6838 38.7332 17C38.2654 17.3396 37.7665 17.6342 37.2432 17.88L37.2232 17.9ZM36.6132 15V15.63C37.1732 14.92 37.8732 14.01 38.6132 13.18C38.958 12.7204 39.3771 12.3216 39.8532 12C39.5703 12.8809 39.0638 13.6733 38.3832 14.3C37.8392 14.8526 37.2578 15.3672 36.6432 15.84L36.5632 16.04C36.4832 16.24 36.4132 16.47 36.3632 16.6C36.2121 16.8777 36.0237 17.1334 35.8032 17.36C36.0032 17.28 36.2332 17.16 36.4332 17.08L36.6332 17C38.3872 16.0055 39.8387 14.554 40.8332 12.8C41.3131 11.588 41.373 10.25 41.0032 9C40.0951 9.8236 39.2741 10.7384 38.5532 11.73C37.7986 12.7531 37.1296 13.8368 36.5532 14.97L36.6132 15ZM14.5532 25.61C13.8432 26.32 12.3032 27.99 12.4532 29.73C13.2639 29.4742 13.9671 28.9574 14.4532 28.26C14.8037 27.5669 15.2013 26.8987 15.6432 26.26H15.0132C14.6067 27.0873 14.0105 27.8069 13.2732 28.36C13.2732 28.36 13.1232 27.53 15.0132 25.71C15.0132 25.63 15.0932 25.56 15.1632 25.51C14.9593 25.5722 14.7462 25.5993 14.5332 25.59L14.5532 25.61ZM34.0532 15.81C33.4605 16.9399 32.5678 17.8845 31.4732 18.54C31.253 18.704 31.0993 18.942 31.0405 19.2102C30.9818 19.4785 31.0218 19.7589 31.1532 20C31.4332 20.71 31.9832 21.74 31.7132 22.17C31.4432 22.6 30.0932 22.8 29.0632 22.37C28.8965 22.7335 28.7095 23.0874 28.5032 23.43C28.5961 23.5346 28.7207 23.606 28.8579 23.633C28.9952 23.6601 29.1375 23.6415 29.2632 23.58C29.2011 23.7523 29.1761 23.9359 29.1899 24.1186C29.2037 24.3012 29.2559 24.4789 29.3432 24.64C29.5507 24.5994 29.7472 24.5151 29.9196 24.3927C30.0921 24.2702 30.2364 24.1125 30.3432 23.93C30.5253 24.2135 30.7908 24.4336 31.1032 24.56C31.2701 24.4346 31.3936 24.2602 31.4563 24.0612C31.5191 23.8621 31.518 23.6484 31.4532 23.45C31.5917 23.6943 31.7847 23.9035 32.017 24.0613C32.2494 24.2191 32.515 24.3213 32.7932 24.36C32.9637 24.1067 33.0418 23.8025 33.0145 23.4984C32.9872 23.1943 32.8561 22.9089 32.6432 22.69C32.8511 22.8453 33.0952 22.9451 33.3523 22.9801C33.6095 23.0151 33.8713 22.9841 34.1132 22.89C34.1132 22.89 34.2632 22.41 33.4032 21.7C33.686 21.6899 33.9618 21.6086 34.2048 21.4635C34.4478 21.3184 34.6502 21.1142 34.7932 20.87C34.5908 20.7013 34.3558 20.5761 34.1029 20.5021C33.85 20.4281 33.5846 20.407 33.3232 20.44C33.6217 20.3546 33.8875 20.1809 34.0856 19.9418C34.2837 19.7027 34.4048 19.4092 34.4332 19.1C34.1476 18.9712 33.8305 18.9291 33.5212 18.9788C33.2119 19.0286 32.924 19.1681 32.6932 19.38C32.8758 19.1204 33.0872 18.8822 33.3232 18.67C33.6975 18.3012 33.9725 17.8439 34.1229 17.3404C34.2732 16.8369 34.294 16.3036 34.1832 15.79L34.0532 15.81ZM30.1832 27.27C30.3265 27.1014 30.4445 26.9127 30.5332 26.71C30.3832 28.1 30.3332 29.01 29.5332 29.92C29.238 29.2947 29.1845 28.5823 29.3832 27.92C29.5215 27.8431 29.6652 27.7762 29.8132 27.72C29.711 28.108 29.6838 28.5119 29.7332 28.91C29.9591 28.3953 30.1041 27.8489 30.1632 27.29L30.1832 27.27ZM31.4232 27.14C31.5773 26.9795 31.6965 26.7888 31.7732 26.58C31.8532 27.41 32.0532 29.51 31.3432 30.15C31.3432 30.15 30.8632 29.8 30.7132 26.71C30.8632 26.86 30.9132 27.06 31.0632 27.19C30.9915 27.7546 31.0602 28.3283 31.2632 28.86C31.2632 28.86 31.6132 28.68 31.4132 27.14H31.4232ZM33.0832 28.76C32.4532 28.05 32.3232 25.9 32.3232 25.9C32.2457 25.8136 32.1501 25.7453 32.0432 25.7L32.0032 25.64V25.84C32.0043 26.9603 32.1936 28.0724 32.5632 29.13C32.8287 29.5636 33.2143 29.911 33.6732 30.13C34.3832 28.94 33.5232 27.32 32.8432 26.13C32.7363 26.1111 32.6382 26.0585 32.5632 25.98C32.8432 26.98 33.3432 27.98 33.1232 28.79L33.0832 28.76ZM34.8132 25.07C34.8237 25.1702 34.795 25.2705 34.7332 25.35V25.43C35.4031 26.1266 36.012 26.8793 36.5532 27.68C36.8094 28.0213 37.1356 28.304 37.5098 28.5092C37.884 28.7144 38.2977 28.8374 38.7232 28.87C38.633 27.9297 38.244 27.0431 37.6132 26.34C36.9255 25.5876 36.1538 24.9165 35.3132 24.34C35.0914 24.4428 34.8423 24.4708 34.6032 24.42H34.5232C34.6165 24.5129 34.6703 24.6383 34.6732 24.77C35.714 25.2699 36.6016 26.04 37.2432 27C37.3732 27.1 36.3832 26.82 34.7932 25.08L34.8132 25.07ZM35.7932 23.97V23.82L35.7132 23.74C36.2732 23.94 38.2432 24.74 38.8732 25C39.3637 25.2725 39.7938 25.6416 40.1375 26.0851C40.4813 26.5285 40.7316 27.0371 40.8732 27.58C40.446 27.6166 40.0157 27.5683 39.6072 27.4378C39.1988 27.3074 38.8202 27.0974 38.4932 26.82C37.4332 25.91 36.1132 24.65 35.6332 24.24L35.7832 24.09C36.7044 24.8399 37.7115 25.4777 38.7832 25.99C38.5489 25.5549 38.2039 25.1892 37.7832 24.93C37.1666 24.5047 36.4934 24.1681 35.7832 23.93L35.7932 23.97ZM37.0032 23C37.0032 22.92 36.9232 22.92 36.9232 22.85C37.5532 23 39.1732 23.2 39.9232 23.41C40.522 23.5698 41.081 23.8523 41.5647 24.2396C42.0485 24.627 42.4464 25.1107 42.7332 25.66C42.7332 25.66 41.6232 26.01 39.4432 25.03C38.415 24.4891 37.3408 24.0407 36.2332 23.69C36.4838 23.69 36.7295 23.6208 36.9432 23.49C37.9318 23.9716 39.0056 24.2536 40.1032 24.32C39.7631 24.0747 39.3936 23.8731 39.0032 23.72C38.366 23.4048 37.695 23.1633 37.0032 23ZM37.0032 22C36.8032 22.0853 36.5902 22.136 36.3732 22.15C36.534 22.2434 36.6791 22.3615 36.8032 22.5C38.1795 22.8456 39.5861 23.0566 41.0032 23.13C42.0757 23.2813 43.1678 23.2133 44.2132 22.93C43.3608 22.4433 42.4407 22.086 41.4832 21.87C40.7232 21.72 38.6232 21.72 37.6432 21.59C37.556 21.6649 37.4623 21.7318 37.3632 21.79C38.483 21.7968 39.5942 21.9859 40.6532 22.35C39.4254 22.4877 38.1824 22.3685 37.0032 22Z" fill="white"/>
<path d="M30.4433 24.5004L30.2433 24.3004C29.9877 24.6245 29.7758 24.9809 29.6133 25.3604C29.4715 25.773 29.3546 26.1938 29.2633 26.6204C29.1539 27.0285 29.01 27.4266 28.8333 27.8104C29.0296 27.8121 29.2243 27.775 29.4062 27.7012C29.5881 27.6274 29.7537 27.5184 29.8933 27.3804C30.2267 26.953 30.4437 26.4466 30.5233 25.9104C30.6171 25.4379 30.5895 24.9494 30.4433 24.4904V24.5004ZM31.4433 24.5704L31.2433 24.7704L31.1633 24.8504H31.0833L30.8033 24.7704C30.7118 24.9434 30.6605 25.1348 30.6533 25.3304C30.5778 25.6797 30.5778 26.0411 30.6533 26.3904C30.7478 26.7001 30.912 26.984 31.1333 27.2204C31.3364 26.997 31.4988 26.7398 31.6133 26.4604C31.7653 26.0783 31.7653 25.6525 31.6133 25.2704C31.6146 25.0223 31.5527 24.7779 31.4333 24.5604L31.4433 24.5704ZM32.6933 24.6104C32.3677 24.5629 32.0568 24.4434 31.7833 24.2604C31.7334 24.3437 31.7006 24.4362 31.6868 24.5323C31.6731 24.6285 31.6787 24.7264 31.7033 24.8204C31.7984 25.1093 31.9633 25.3704 32.1833 25.5804C32.3842 25.754 32.6176 25.8858 32.87 25.9682C33.1224 26.0506 33.3887 26.082 33.6533 26.0604C33.7333 26.1104 33.8833 25.6804 32.6533 24.6204L32.6933 24.6104ZM33.1333 23.8604C33.1042 24.0934 33.0067 24.3126 32.8533 24.4904C33.026 24.7713 33.2741 24.998 33.5693 25.1448C33.8646 25.2915 34.1951 25.3524 34.5233 25.3204C34.6012 25.1223 34.6001 24.9018 34.5201 24.7045C34.44 24.5072 34.2872 24.3482 34.0933 24.2604C33.7633 24.1304 33.4833 23.9804 33.0933 23.8604H33.1333ZM33.0033 23.1604C33.3526 23.2359 33.714 23.2359 34.0633 23.1604H34.2133V23.0004C34.7733 23.4304 35.3233 23.4804 35.6033 23.9104C35.5032 24.0561 35.3662 24.1727 35.2063 24.2482C35.0465 24.3238 34.8695 24.3556 34.6933 24.3404C34.3933 24.3153 34.1018 24.2287 33.8368 24.0859C33.5719 23.943 33.3392 23.7472 33.1533 23.5104C33.0591 23.4181 33.0052 23.2923 33.0033 23.1604ZM34.1933 22.5304C34.123 22.3185 34.0029 22.1265 33.8433 21.9704C34.3035 21.8947 34.7731 21.8947 35.2333 21.9704C35.5955 21.9676 35.949 22.0819 36.2409 22.2964C36.5329 22.5108 36.7477 22.8139 36.8533 23.1604C36.5195 23.3587 36.1253 23.4298 35.7433 23.3604C35.4405 23.3478 35.1445 23.2665 34.8777 23.1227C34.6109 22.9789 34.3803 22.7764 34.2033 22.5304H34.1933ZM34.4833 21.5304C34.6541 21.3666 34.7991 21.1777 34.9133 20.9704L34.9933 20.8204C35.5128 20.5677 36.107 20.5143 36.6633 20.6704C37.0068 20.7737 37.3015 20.9973 37.4933 21.3004C37.1011 21.5973 36.6401 21.79 36.1533 21.8604C35.5801 21.8636 35.0122 21.7514 34.4833 21.5304ZM34.2533 20.3904C34.1733 20.3104 34.0533 20.3104 33.9033 20.3104C34.1906 20.0091 34.4059 19.6467 34.5333 19.2504C34.9028 19.337 35.29 19.3091 35.6433 19.1704C35.8393 19.0988 36.0495 19.0751 36.2565 19.1012C36.4635 19.1273 36.6612 19.2024 36.8333 19.3204C36.7605 19.5566 36.6223 19.7675 36.4347 19.9285C36.2472 20.0895 36.0178 20.1942 35.7733 20.2304C35.5478 20.3687 35.2938 20.454 35.0305 20.48C34.7673 20.506 34.5015 20.4719 34.2533 20.3804V20.3904ZM34.6433 19.0004H34.4933C34.3203 18.9089 34.1289 18.8576 33.9333 18.8504C34.3924 18.4561 34.8842 18.1014 35.4033 17.7904C35.9805 17.4147 36.6262 17.1564 37.3033 17.0304C37.0857 17.5898 36.7783 18.11 36.3933 18.5704C36.1872 18.8192 35.9114 19.0008 35.6013 19.0916C35.2913 19.1825 34.9611 19.1786 34.6533 19.0804L34.6433 19.0004ZM33.7433 18.6004C33.9746 18.2655 34.1377 17.8883 34.2233 17.4904C34.3733 17.0104 34.5033 16.4304 34.7033 15.9504C35.052 15.3129 35.6318 14.8334 36.3233 14.6104C36.4776 15.281 36.4073 15.9837 36.1233 16.6104C35.5117 17.4675 34.6929 18.1556 33.7433 18.6104V18.6004ZM28.2833 23.6104C28.1587 23.7298 28.0129 23.8248 27.8533 23.8904C27.7601 24.1043 27.7187 24.3371 27.7326 24.57C27.7465 24.8029 27.8153 25.0292 27.9333 25.2304C28.273 25.8343 28.5511 26.4708 28.7633 27.1304C28.7633 27.1304 28.9633 27.1304 29.1933 25.9404C29.2634 25.4987 29.4576 25.086 29.7533 24.7504C29.6234 24.8328 29.4763 24.8841 29.3233 24.9004H29.1733L29.0933 24.7504C28.9693 24.5356 28.9168 24.287 28.9433 24.0404V23.8404C28.8228 23.8613 28.699 23.8511 28.5835 23.8109C28.468 23.7706 28.3647 23.7016 28.2833 23.6104Z" fill="white"/>
<path d="M34.3633 25.61C35.0733 26.32 36.6133 27.99 36.4633 29.73C35.6526 29.4742 34.9494 28.9574 34.4633 28.26C34.1128 27.5669 33.7152 26.8987 33.2733 26.26H33.9033C34.3098 27.0873 34.906 27.8069 35.6433 28.36C35.6433 28.36 35.7933 27.53 33.9033 25.71C33.9033 25.63 33.8233 25.56 33.7533 25.51C33.9572 25.5722 34.1703 25.5993 34.3833 25.59L34.3633 25.61ZM19.5933 12.82C20.0442 12.6683 20.5324 12.6683 20.9833 12.82C20.5286 12.9467 20.048 12.9467 19.5933 12.82ZM24.7033 12C24.7033 12.15 24.6233 12.2 24.5033 12.2C24.4767 12.2014 24.45 12.1973 24.4251 12.1877C24.4002 12.1782 24.3775 12.1635 24.3587 12.1446C24.3398 12.1258 24.3251 12.1031 24.3156 12.0782C24.306 12.0533 24.3019 12.0266 24.3033 12C24.3033 11.85 24.3833 11.8 24.5033 11.8C24.5299 11.7986 24.5566 11.8027 24.5815 11.8123C24.6064 11.8218 24.6291 11.8365 24.6479 11.8554C24.6668 11.8742 24.6815 11.8969 24.691 11.9218C24.7006 11.9467 24.7047 11.9734 24.7033 12ZM23.3133 11.24C23.0367 10.6863 22.8253 10.1024 22.6833 9.5C22.7633 9.35 22.8333 9.22 23.0333 9.22C23.2333 9.22 23.3133 9.14 23.3833 9.22C23.6299 9.79755 23.7753 10.4132 23.8133 11.04C23.6376 11.091 23.4668 11.1579 23.3033 11.24H23.3133ZM23.9833 11.09H24.2633C24.191 10.5676 24.0739 10.0523 23.9133 9.55C23.8951 9.43043 23.8471 9.31736 23.7737 9.22123C23.7003 9.12511 23.6039 9.04902 23.4933 9C23.5733 9.28 23.6933 9.56 23.7733 9.83C23.8731 10.2555 23.9499 10.6862 24.0033 11.12L23.9833 11.09ZM23.4433 12.59C23.0781 12.7862 22.6677 12.8828 22.2533 12.87C22.4133 12.5933 22.6276 12.3518 22.8833 12.16C23.2345 11.9291 23.656 11.8299 24.0733 11.88C23.9175 12.1597 23.7025 12.402 23.4433 12.59ZM22.8133 12.67C23.1277 12.5465 23.4111 12.3554 23.6433 12.11C23.3034 12.1794 23.0049 12.3808 22.8133 12.67Z" fill="white"/>
<path d="M19.4735 12.95C19.9224 13.094 20.3922 13.1616 20.8635 13.15C21.6885 13.1567 22.5113 13.0627 23.3135 12.87C23.2816 12.9709 23.2258 13.0626 23.151 13.1375C23.0761 13.2123 22.9844 13.2681 22.8835 13.3C23.0152 13.3029 23.1406 13.3567 23.2335 13.45C23.1899 13.5349 23.1292 13.6098 23.0552 13.6701C22.9812 13.7303 22.8955 13.7746 22.8035 13.8C23.1 14.0939 23.4963 14.2653 23.9135 14.28C23.8021 14.3787 23.6681 14.4485 23.5234 14.4834C23.3787 14.5182 23.2277 14.5171 23.0835 14.48C22.7234 14.4071 22.4009 14.2086 22.1735 13.92C22.2368 14.054 22.2643 14.2022 22.2535 14.35C22.1589 14.3375 22.0678 14.3062 21.9854 14.2582C21.903 14.2101 21.831 14.1461 21.7735 14.07C21.8636 14.2146 21.9152 14.3798 21.9235 14.55C21.7678 14.5471 21.6172 14.4946 21.4935 14.4C21.5553 14.5058 21.5832 14.6279 21.5735 14.75C21.1957 14.6139 20.8389 14.4254 20.5135 14.19V14.54C20.5935 14.62 19.5135 14.46 19.5135 12.92L19.4735 12.95ZM21.3335 13.55H20.1035C20.116 13.6446 20.1473 13.7357 20.1953 13.8181C20.2434 13.9005 20.3074 13.9725 20.3835 14.03C20.3835 13.55 21.2935 13.55 21.2935 13.55H21.3335ZM19.2935 13.07C19.2993 13.3836 19.3673 13.6929 19.4935 13.98C19.2804 13.8463 19.113 13.651 19.0135 13.42C18.9335 13.07 18.9335 12.91 19.2935 13.07ZM19.5235 14.07L20.0835 14.5C19.8773 14.578 19.667 14.6448 19.4535 14.7C19.247 14.5284 18.987 14.4345 18.7185 14.4345C18.45 14.4345 18.19 14.5284 17.9835 14.7C17.881 14.646 17.7912 14.5707 17.7203 14.479C17.6494 14.3874 17.5989 14.2816 17.5724 14.1688C17.5458 14.056 17.5438 13.9388 17.5664 13.8252C17.5891 13.7115 17.6358 13.604 17.7035 13.51C17.827 13.3743 17.9907 13.2818 18.1707 13.2458C18.3506 13.2098 18.5373 13.2323 18.7035 13.31C18.7807 13.4879 18.8945 13.6475 19.0375 13.7785C19.1805 13.9094 19.3495 14.0087 19.5335 14.07H19.5235ZM18.5335 14.22C18.5632 14.22 18.5922 14.2112 18.6168 14.1947C18.6415 14.1782 18.6607 14.1548 18.6721 14.1274C18.6834 14.1 18.6864 14.0698 18.6806 14.0407C18.6748 14.0116 18.6605 13.9849 18.6396 13.9639C18.6186 13.943 18.5919 13.9287 18.5628 13.9229C18.5337 13.9171 18.5035 13.9201 18.4761 13.9314C18.4487 13.9428 18.4253 13.962 18.4088 13.9867C18.3923 14.0113 18.3835 14.0403 18.3835 14.07C18.3835 14.15 18.3835 14.22 18.5335 14.22ZM20.1235 14.62C20.2716 14.8165 20.432 15.0035 20.6035 15.18C20.3062 15.1695 20.0129 15.2514 19.764 15.4143C19.5151 15.5773 19.3228 15.8133 19.2135 16.09C19.1133 15.9451 19.0531 15.7764 19.039 15.6008C19.025 15.4252 19.0576 15.249 19.1335 15.09C19.2575 14.9447 19.4105 14.8269 19.5827 14.7443C19.755 14.6616 19.9426 14.6159 20.1335 14.61L20.1235 14.62ZM21.3435 14.84L21.8235 14.99V14.71C21.9735 14.71 22.0235 14.79 22.1735 14.79C22.2952 15.2258 22.4951 15.6358 22.7635 16C22.7472 16.153 22.6959 16.3001 22.6135 16.43C22.4443 16.1419 22.2573 15.8647 22.0535 15.6C21.8731 15.3079 21.608 15.0777 21.2935 14.94L21.3435 14.84ZM20.3835 14.79C20.7418 14.8663 21.0816 15.0124 21.3835 15.22C21.5535 15.3261 21.6939 15.4733 21.7918 15.6481C21.8897 15.823 21.9419 16.0196 21.9435 16.22C21.7903 16.0026 21.6009 15.8132 21.3835 15.66C20.9755 15.4737 20.6287 15.1755 20.3835 14.8V14.79ZM20.3835 11.23C20.5335 11.23 20.6635 11.31 20.6635 11.43C20.5785 11.6967 20.4609 11.952 20.3135 12.19C20.1519 11.9599 20.0334 11.7024 19.9635 11.43C20.0094 11.3599 20.074 11.3041 20.15 11.2688C20.226 11.2334 20.3103 11.22 20.3935 11.23H20.3835ZM20.1635 12.57C20.1047 12.2279 20.0109 11.8928 19.8835 11.57C19.7536 11.4876 19.6065 11.4363 19.4535 11.42C19.402 11.4245 19.3537 11.447 19.3171 11.4836C19.2805 11.5202 19.258 11.5685 19.2535 11.62V11.7C19.4216 12.0144 19.6086 12.3183 19.8135 12.61C19.9245 12.5657 20.0445 12.5485 20.1635 12.56V12.57ZM20.5135 12.56C20.5723 12.2179 20.6661 11.8828 20.7935 11.56C20.9234 11.4776 21.0705 11.4263 21.2235 11.41C21.275 11.4145 21.3233 11.437 21.3599 11.4736C21.3965 11.5102 21.419 11.5585 21.4235 11.61V11.69C21.2728 12.0141 21.0849 12.3195 20.8635 12.6C20.753 12.5537 20.6325 12.5364 20.5135 12.55V12.56ZM20.8635 10.38H20.4335V10H20.2335V10.35H19.8035V10.63H20.2335V11H20.4335V10.6H20.8635V10.38ZM16.5935 12.88V12.2C16.423 12.2563 16.2667 12.3489 16.1355 12.4715C16.0042 12.5941 15.9012 12.7437 15.8335 12.91C15.8335 12.91 16.3935 12.56 16.5935 12.91V12.88ZM17.0735 13.82C17.1535 13.54 17.2235 13.19 17.2735 12.91C17.3442 12.7021 17.3674 12.481 17.3415 12.263C17.3155 12.0449 17.241 11.8355 17.1235 11.65C16.9753 11.3383 16.9066 10.9947 16.9235 10.65L16.4435 10.85C16.4652 11.1994 16.5606 11.5402 16.7235 11.85C16.824 12.1145 16.8516 12.4012 16.8035 12.68C16.7649 12.879 16.7699 13.0839 16.8182 13.2808C16.8666 13.4776 16.9571 13.6616 17.0835 13.82H17.0735ZM17.0835 10.82V10.62C17.3445 10.3264 17.6968 10.1291 18.0835 10.06C18.2835 9.98 18.4335 10.06 18.6435 10.21C18.5118 10.2129 18.3864 10.2667 18.2935 10.36C18.0796 10.5513 17.8407 10.7128 17.5835 10.84C17.4237 10.8281 17.2633 10.8281 17.1035 10.84" fill="white"/>
<path d="M18.6136 10.1399C18.7844 10.2867 18.9064 10.4821 18.9636 10.6999C18.9011 10.9964 18.7823 11.2782 18.6136 11.5299C18.4435 11.7286 18.345 11.9786 18.3336 12.2399C18.3336 12.3899 18.4836 12.5199 18.5336 12.6699C18.3842 12.6278 18.2447 12.5567 18.1228 12.4606C18.001 12.3645 17.8993 12.2453 17.8236 12.1099C17.7856 11.9769 17.7841 11.8362 17.8192 11.7025C17.8544 11.5687 17.925 11.447 18.0235 11.3499C18.1474 11.0755 18.3091 10.8197 18.5036 10.5899C18.5829 10.4503 18.6177 10.2898 18.6035 10.1299L18.6136 10.1399ZM22.3236 14.5499C22.4423 14.9751 22.6315 15.3774 22.8835 15.7399C23.0579 16.045 23.1542 16.3886 23.1636 16.7399C23.309 16.4068 23.3607 16.0403 23.3135 15.6799C23.1361 15.1946 22.7777 14.7968 22.3135 14.5699L22.3236 14.5499ZM23.0235 14.6999C23.2405 14.7139 23.4536 14.7646 23.6536 14.8499C23.9758 15.0978 24.1991 15.4523 24.2836 15.8499C24.0612 15.7874 23.849 15.6931 23.6536 15.5699C23.3697 15.3455 23.1518 15.0483 23.0235 14.7099V14.6999ZM20.7735 15.5699C20.6235 15.5699 20.4935 15.6499 20.3435 15.6499C20.5398 15.7225 20.7277 15.8164 20.9036 15.9299C21.0072 16.0182 21.0917 16.1267 21.1518 16.2488C21.212 16.3709 21.2467 16.504 21.2536 16.6399C21.3508 17.0262 21.4952 17.399 21.6836 17.7499C21.6889 17.3714 21.7564 16.9964 21.8835 16.6399C21.7227 16.5466 21.5776 16.4284 21.4535 16.2899C21.3179 15.9803 21.0769 15.7288 20.7735 15.5799V15.5699ZM22.7735 16.5799C22.9316 16.9034 23.0105 17.2599 23.0036 17.6199C22.8411 17.9994 22.6292 18.3558 22.3736 18.6799C22.2866 18.2651 22.2364 17.8435 22.2236 17.4199C22.2166 17.236 22.2606 17.0537 22.3505 16.8931C22.4405 16.7326 22.5731 16.6 22.7336 16.5099L22.7735 16.5799ZM23.4935 16.5099C23.7093 16.8854 23.8805 17.2847 24.0036 17.6999C24.0382 17.8296 24.0427 17.9656 24.0167 18.0973C23.9907 18.229 23.9348 18.3531 23.8535 18.4599C23.6536 18.7399 23.4236 19.0199 23.2236 19.2899C23.0903 19.126 22.9947 18.9348 22.9436 18.7299C22.9263 18.4518 22.9465 18.1726 23.0036 17.8999C23.2223 17.4559 23.3932 16.99 23.5136 16.5099H23.4935ZM23.7936 19.2399C23.5235 19.5156 23.2854 19.8209 23.0836 20.1499C23.0092 20.2627 22.9694 20.3948 22.9694 20.5299C22.9694 20.665 23.0092 20.7971 23.0836 20.9099C23.3038 21.2187 23.5866 21.4777 23.9136 21.6699C23.7164 21.3748 23.6182 21.0245 23.6335 20.6699C23.709 20.4266 23.8027 20.1892 23.9136 19.9599C23.9259 19.7099 23.8814 19.4603 23.7836 19.2299L23.7936 19.2399ZM22.7836 18.8799C22.9197 19.0612 22.9903 19.2833 22.9836 19.5099C22.9701 19.7919 22.9197 20.071 22.8336 20.3399C22.6828 20.7525 22.4953 21.1507 22.2735 21.5299C22.1287 21.3368 22.0109 21.1249 21.9235 20.8999C22.1235 20.6199 22.2736 20.3399 22.4836 20.0699C22.6131 19.6813 22.7134 19.2835 22.7836 18.8799ZM22.6335 18.6799C22.4902 19.4255 22.2088 20.1378 21.8036 20.7799C21.6899 20.9905 21.5316 21.1738 21.34 21.3171C21.1483 21.4604 20.9277 21.5603 20.6936 21.6099C20.4871 21.6001 20.2888 21.5266 20.1258 21.3994C19.9629 21.2723 19.8433 21.0978 19.7836 20.8999C19.7129 20.7173 19.6894 20.5197 19.7157 20.3256C19.7419 20.1315 19.8169 19.9472 19.9336 19.7899C19.9775 19.9665 20.0658 20.129 20.19 20.262C20.3143 20.395 20.4704 20.4941 20.6436 20.5499C21.1736 20.4999 21.8836 19.8699 22.6436 18.6799" fill="white"/>
<path d="M22.0034 18.1998C22.0729 18.4619 22.0729 18.7377 22.0034 18.9998C21.9766 19.1448 21.9202 19.2828 21.8376 19.405C21.755 19.5271 21.648 19.6309 21.5234 19.7098C21.361 19.8042 21.1697 19.8359 20.9855 19.7991C20.8014 19.7622 20.637 19.6594 20.5234 19.5098L20.4434 19.4298C20.7935 19.3944 21.1262 19.2598 21.4025 19.042C21.6788 18.8241 21.8873 18.532 22.0034 18.1998ZM23.7234 22.9998C23.9905 23.3344 24.2031 23.709 24.3534 24.1098C24.3397 24.6288 24.1915 25.1353 23.9234 25.5798C23.6038 25.3139 23.3591 24.9692 23.2134 24.5798C23.1762 24.2951 23.2026 24.0057 23.2908 23.7325C23.379 23.4593 23.5268 23.209 23.7234 22.9998ZM23.0434 23.4798C23.1651 23.141 23.3557 22.8311 23.6034 22.5698C23.677 22.2706 23.6468 21.9554 23.5178 21.6756C23.3888 21.3958 23.1687 21.1681 22.8934 21.0298C22.6379 21.3609 22.4478 21.7376 22.3334 22.1398C22.2534 22.7198 22.8134 22.9998 23.0434 23.4798ZM21.7834 21.0998C21.6302 21.3172 21.4408 21.5066 21.2234 21.6598V22.3698C21.3328 22.7779 21.4767 23.176 21.6534 23.5598C21.8713 23.2907 22.0344 22.9816 22.1334 22.6498C22.1911 22.377 22.2179 22.0986 22.2134 21.8198C22.089 21.5722 21.9452 21.3348 21.7834 21.1098V21.0998ZM20.5934 23.1098C20.2953 22.6853 20.094 22.2006 20.0034 21.6898C20.1544 21.7745 20.322 21.8255 20.4946 21.8393C20.6673 21.8531 20.8408 21.8294 21.0034 21.7698C21.0792 22.0684 21.0792 22.3812 21.0034 22.6798C20.8722 22.8502 20.7284 23.0107 20.5734 23.1598L20.5934 23.1098ZM20.6534 23.3098L21.0034 22.9998C21.0834 22.9198 21.3534 23.6298 21.4334 23.8298C21.2834 23.8298 21.1534 23.8298 21.0834 23.7498C20.9535 23.6027 20.8095 23.4688 20.6534 23.3498V23.3098ZM22.2534 22.9998C22.0408 23.3496 21.8035 23.6838 21.5434 23.9998C21.6189 24.2431 21.7125 24.4805 21.8234 24.7098C21.9924 25.0153 22.2046 25.2949 22.4534 25.5398C22.6242 25.2783 22.7682 25.0002 22.8834 24.7098C22.9998 24.4926 23.0419 24.2432 23.0034 23.9998C22.8534 23.6498 22.4434 23.2898 22.2934 22.9398L22.2534 22.9998ZM23.0034 24.8998C23.2354 25.2056 23.4239 25.5422 23.5634 25.8998C23.6124 26.1126 23.584 26.336 23.4834 26.5298C23.4034 26.6798 23.2034 27.0098 23.0534 27.2898C22.7713 27.0761 22.5533 26.789 22.4234 26.4598C22.3805 26.3231 22.3655 26.1793 22.3792 26.0367C22.393 25.8941 22.4352 25.7558 22.5034 25.6298C22.6534 25.4298 22.9334 25.2298 23.0134 24.9198L23.0034 24.8998ZM21.5934 24.8698C21.7903 25.1234 21.9518 25.4026 22.0734 25.6998C22.1472 25.8256 22.1862 25.9689 22.1862 26.1148C22.1862 26.2607 22.1472 26.404 22.0734 26.5298C21.9234 26.8098 21.7934 27.0098 21.7234 27.1598C21.5203 26.9364 21.3579 26.6792 21.2434 26.3998C21.1684 26.1282 21.1684 25.8414 21.2434 25.5698C21.4094 25.3608 21.5287 25.1187 21.5934 24.8598V24.8698ZM23.5934 26.8598C23.3074 27.2393 23.1062 27.6758 23.0034 28.1398C23.1127 28.5707 23.2565 28.992 23.4334 29.3998C23.6359 29.1948 23.7987 28.9541 23.9134 28.6898C24.0868 28.4202 24.1577 28.0973 24.1134 27.7798C24.122 27.6075 24.0904 27.4355 24.021 27.2775C23.9515 27.1196 23.8462 26.98 23.7134 26.8698L23.5934 26.8598ZM22.3734 26.7898C22.5883 27.1028 22.7097 27.4704 22.7234 27.8498C22.5736 28.2025 22.3859 28.5378 22.1634 28.8498C22.0153 28.5875 21.8979 28.309 21.8134 28.0198C21.8071 27.7886 21.8544 27.5591 21.9516 27.3492C22.0487 27.1393 22.1931 26.9547 22.3734 26.8098V26.7898ZM29.4534 12.8098C29.0025 12.6581 28.5143 12.6581 28.0634 12.8098C28.5181 12.9365 28.9987 12.9365 29.4534 12.8098ZM24.5034 10.5698C24.6809 10.1348 24.8247 9.68685 24.9334 9.2298C24.9334 9.11576 24.8881 9.00639 24.8075 8.92575C24.7268 8.84511 24.6174 8.7998 24.5034 8.7998C24.3894 8.7998 24.28 8.84511 24.1993 8.92575C24.1187 9.00639 24.0734 9.11576 24.0734 9.2298C24.1709 9.6899 24.315 10.1389 24.5034 10.5698ZM25.6934 11.2798C25.97 10.7261 26.1814 10.1422 26.3234 9.5398C26.2434 9.3898 26.1734 9.2598 26.0434 9.2598C25.9134 9.2598 25.7634 9.1798 25.6934 9.2598C25.4468 9.83735 25.3014 10.453 25.2634 11.0798C25.3434 11.1298 25.5434 11.2098 25.6934 11.2798ZM25.0034 11.1198H24.7034C24.7757 10.5974 24.8928 10.0821 25.0534 9.5798C25.053 9.44826 25.0959 9.32024 25.1754 9.21544C25.2549 9.11065 25.3666 9.03488 25.4934 8.9998C25.4134 9.2798 25.2934 9.5598 25.2134 9.8298C25.1334 10.2598 25.0634 10.6898 24.9834 11.0898L25.0034 11.1198ZM25.0634 11.8698C25.4778 11.857 25.8882 11.9536 26.2534 12.1498C26.5258 12.3227 26.7442 12.5687 26.8834 12.8598C26.469 12.8726 26.0586 12.776 25.6934 12.5798C25.5378 12.5229 25.3988 12.4282 25.2888 12.3043C25.1788 12.1804 25.1014 12.0311 25.0634 11.8698ZM25.3434 12.0698C25.5754 12.3154 25.8588 12.5066 26.1734 12.6298C26.084 12.4818 25.9635 12.355 25.8202 12.2583C25.6768 12.1615 25.5141 12.0972 25.3434 12.0698ZM28.4234 14.5998V14.2498C28.1176 14.4818 27.781 14.6703 27.4234 14.8098C27.4137 14.6877 27.4416 14.5656 27.5034 14.4598C27.3735 14.5422 27.2264 14.5935 27.0734 14.6098C27.1534 14.4598 27.1534 14.2598 27.2734 14.1298C27.2176 14.2076 27.146 14.2728 27.0633 14.3211C26.9806 14.3693 26.8886 14.3996 26.7934 14.4098C26.7826 14.262 26.8101 14.1138 26.8734 13.9798C26.6773 14.2645 26.3808 14.4645 26.0434 14.5398C25.8992 14.5769 25.7482 14.578 25.6035 14.5432C25.4588 14.5083 25.3248 14.4385 25.2134 14.3398C25.6317 14.3301 26.0298 14.158 26.3234 13.8598C26.1626 13.7664 26.0175 13.6483 25.8934 13.5098C25.9863 13.4165 26.1117 13.3627 26.2434 13.3598C26.1425 13.3279 26.0508 13.2721 25.9759 13.1973C25.9011 13.1224 25.8453 13.0307 25.8134 12.9298C26.6149 13.1267 27.4382 13.2208 28.2634 13.2098C28.734 13.2108 29.2022 13.1434 29.6534 13.0098C29.4534 14.4798 28.4134 14.6298 28.4134 14.6298L28.4234 14.5998ZM28.6134 13.9998C28.6912 13.944 28.7564 13.8724 28.8047 13.7897C28.8529 13.707 28.8832 13.615 28.8934 13.5198C28.4719 13.5307 28.0502 13.5039 27.6334 13.4398V13.5198C27.7134 13.5698 28.6334 13.5698 28.6334 13.9998H28.6134ZM29.7434 13.0898C29.7376 13.4034 29.6696 13.7127 29.5434 13.9998C29.7565 13.8661 29.9239 13.6708 30.0234 13.4398C30.1034 13.1398 30.1034 12.9298 29.7434 13.0898ZM30.4534 13.4198C30.6196 13.3421 30.8063 13.3196 30.9862 13.3556C31.1662 13.3916 31.3299 13.4842 31.4534 13.6198C31.5449 13.8212 31.5671 14.0472 31.5164 14.2626C31.4657 14.4779 31.3451 14.6704 31.1734 14.8098C30.9669 14.6382 30.7069 14.5443 30.4384 14.5443C30.1699 14.5443 29.9099 14.6382 29.7034 14.8098C29.5059 14.7087 29.293 14.6411 29.0734 14.6098C29.2304 14.4315 29.4206 14.2854 29.6334 14.1798C29.992 14.0338 30.2864 13.7642 30.4634 13.4198H30.4534ZM30.7434 14.1998C30.7434 14.1701 30.7346 14.1411 30.7181 14.1165C30.7016 14.0918 30.6782 14.0726 30.6508 14.0612C30.6234 14.0499 30.5932 14.0469 30.5641 14.0527C30.535 14.0585 30.5083 14.0728 30.4873 14.0937C30.4664 14.1147 30.4521 14.1414 30.4463 14.1705C30.4405 14.1996 30.4435 14.2298 30.4548 14.2572C30.4662 14.2846 30.4854 14.308 30.5101 14.3245C30.5347 14.341 30.5637 14.3498 30.5934 14.3498C30.6734 14.3498 30.7434 14.2698 30.7434 14.1998ZM28.9234 14.6798C28.7753 14.8763 28.6149 15.0633 28.4434 15.2398C28.7407 15.2293 29.034 15.3112 29.2829 15.4741C29.5318 15.6371 29.7241 15.8731 29.8334 16.1498C29.9336 16.0049 29.9938 15.8362 30.0079 15.6606C30.0219 15.485 29.9893 15.3088 29.9134 15.1498C29.7934 14.9999 29.6412 14.8789 29.4681 14.7959C29.295 14.7128 29.1054 14.6697 28.9134 14.6698" fill="white"/>
<path d="M27.7134 14.9204L27.2334 15.0704V14.7904C27.0834 14.7904 27.0334 14.8704 26.8834 14.8704C26.7378 15.2816 26.5212 15.6641 26.2434 16.0004C26.2597 16.1534 26.311 16.3005 26.3934 16.4304C26.5626 16.1423 26.7496 15.8651 26.9534 15.6004C27.1486 15.3212 27.4096 15.0945 27.7134 14.9404V14.9204ZM28.6234 14.7904C28.2651 14.8667 27.9253 15.0128 27.6234 15.2204C27.4534 15.3265 27.313 15.4737 27.2151 15.6485C27.1172 15.8234 27.065 16.0201 27.0634 16.2204C27.2166 16.003 27.406 15.8136 27.6234 15.6604C28.0164 15.4515 28.358 15.1577 28.6234 14.8004V14.7904ZM28.6234 11.2304C28.4734 11.2304 28.3434 11.3104 28.3434 11.4304C28.4284 11.6971 28.546 11.9524 28.6934 12.1904C28.855 11.9603 28.9735 11.7028 29.0434 11.4304C28.9292 11.3135 28.7763 11.2424 28.6134 11.2304H28.6234ZM28.8134 12.5704C28.8351 12.221 28.9305 11.8802 29.0934 11.5704C29.2233 11.488 29.3704 11.4367 29.5234 11.4204C29.6034 11.4204 29.7234 11.5004 29.6734 11.6204V11.7004C29.5053 12.0148 29.3183 12.3187 29.1134 12.6104C29.1134 12.5604 28.9634 12.5604 28.8134 12.5604V12.5704ZM28.4834 12.5604C28.4246 12.2183 28.3308 11.8833 28.2034 11.5604C28.0735 11.478 27.9264 11.4267 27.7734 11.4104C27.7219 11.4149 27.6736 11.4374 27.637 11.474C27.6004 11.5106 27.5779 11.5589 27.5734 11.6104V11.6904C27.7415 12.0048 27.9285 12.3087 28.1334 12.6004C28.2439 12.5541 28.3644 12.5368 28.4834 12.5504V12.5604ZM28.1334 10.3804H28.5334V10.0004H28.8134V10.3504H29.1634V10.6304H28.8134V11.0004H28.5334V10.6004H28.1334V10.3804ZM24.0034 8.12043H24.3534V7.69043H24.6334V8.12043H25.0034V8.32043H24.6534V8.83043H24.3734V8.32043H24.0034V8.12043ZM32.4234 12.8704V12.1904C32.5939 12.2467 32.7502 12.3393 32.8814 12.4619C33.0127 12.5845 33.1157 12.7341 33.1834 12.9004C33.1834 12.9004 32.6234 12.5504 32.4234 12.9004V12.8704ZM31.9134 13.8104C31.8334 13.5304 31.7634 13.1804 31.7134 12.9004C31.5861 12.4846 31.6146 12.0367 31.7934 11.6404C31.9781 11.3419 32.0491 10.9869 31.9934 10.6404L32.4734 10.8404C32.4517 11.1898 32.3563 11.5306 32.1934 11.8404C32.0929 12.1049 32.0653 12.3916 32.1134 12.6704C32.1905 12.86 32.2126 13.0675 32.1772 13.2691C32.1418 13.4708 32.0504 13.6583 31.9134 13.8104ZM31.9134 10.8104V10.6104C31.6524 10.3168 31.3001 10.1195 30.9134 10.0504C30.7134 9.97043 30.5634 10.0504 30.3534 10.2004C30.4851 10.2033 30.6105 10.2571 30.7034 10.3504C30.9173 10.5417 31.1562 10.7032 31.4134 10.8304C31.5733 10.8213 31.7335 10.8213 31.8934 10.8304" fill="white"/>
<path d="M30.3735 10.1399C30.2027 10.2867 30.0806 10.4821 30.0235 10.6999C30.086 10.9964 30.2048 11.2782 30.3735 11.5299C30.5436 11.7286 30.6422 11.9786 30.6535 12.2399C30.6535 12.3899 30.5035 12.5199 30.4535 12.6699C30.6028 12.6278 30.7424 12.5567 30.8643 12.4606C30.9861 12.3645 31.0878 12.2453 31.1635 12.1099C31.2015 11.9769 31.203 11.8362 31.1678 11.7025C31.1326 11.5687 31.062 11.447 30.9635 11.3499C30.8396 11.0755 30.678 10.8197 30.4835 10.5899C30.4042 10.4503 30.3693 10.2898 30.3835 10.1299L30.3735 10.1399ZM26.6935 14.5499C26.5748 14.9751 26.3855 15.3774 26.1335 15.7399C25.9386 16.0583 25.8412 16.4268 25.8535 16.7999C25.7081 16.4668 25.6562 16.1003 25.7035 15.7399C25.7579 15.474 25.8779 15.2258 26.0525 15.018C26.2271 14.8102 26.4509 14.6493 26.7035 14.5499H26.6935ZM25.9935 14.6799C25.7765 14.6939 25.5635 14.7446 25.3635 14.8299C25.0413 15.0778 24.818 15.4323 24.7335 15.8299C24.9559 15.7674 25.1681 15.6731 25.3635 15.5499C25.6414 15.3198 25.8579 15.0243 25.9935 14.6899V14.6799ZM28.2435 15.5499C28.3935 15.5499 28.5235 15.6299 28.6735 15.6299C28.4771 15.7025 28.2894 15.7964 28.1135 15.9099C28.0099 15.9982 27.9254 16.1067 27.8653 16.2288C27.8051 16.3509 27.7705 16.484 27.7635 16.6199C27.6663 17.0062 27.5219 17.379 27.3335 17.7299C27.3282 17.3514 27.2606 16.9764 27.1335 16.6199C27.2943 16.5266 27.4394 16.4084 27.5635 16.2699C27.623 16.1117 27.7139 15.9673 27.8308 15.8452C27.9476 15.7232 28.088 15.6261 28.2435 15.5599V15.5499ZM26.2435 16.5599C26.0788 16.8886 25.9965 17.2524 26.0035 17.6199C26.166 17.9994 26.3779 18.3558 26.6335 18.6799C26.7205 18.2651 26.7707 17.8435 26.7835 17.4199C26.7804 17.2379 26.7322 17.0594 26.6432 16.9006C26.5542 16.7418 26.4272 16.6075 26.2735 16.5099L26.2435 16.5599ZM24.5035 17.7699C24.5035 17.4899 25.1335 16.8599 25.1335 16.5099C25.0843 16.3633 25.0018 16.2302 24.8925 16.1209C24.7832 16.0116 24.6501 15.9291 24.5035 15.8799C24.2353 16.0223 24.0159 16.2417 23.8735 16.5099C23.8735 16.8599 24.5035 17.5699 24.5035 17.7699ZM25.5035 16.5099C25.2912 16.8858 25.1234 17.2852 25.0035 17.6999C24.9689 17.8296 24.9644 17.9656 24.9904 18.0973C25.0164 18.229 25.0722 18.3531 25.1535 18.4599C25.3535 18.7399 25.5835 19.0199 25.7835 19.2899C25.9168 19.126 26.0124 18.9348 26.0635 18.7299C26.0808 18.4518 26.0606 18.1726 26.0035 17.8999C25.7737 17.4608 25.6022 16.9935 25.4935 16.5099H25.5035ZM24.4935 19.7999C24.6865 19.6572 24.8355 19.4632 24.9235 19.2399C24.9669 19.1491 24.9825 19.0474 24.9683 18.9478C24.954 18.8481 24.9106 18.7549 24.8435 18.6799C24.6731 18.5046 24.5523 18.2872 24.4935 18.0499C24.4061 18.2749 24.2883 18.4868 24.1435 18.6799C24.0752 18.7543 24.031 18.8475 24.0167 18.9475C24.0024 19.0475 24.0187 19.1494 24.0635 19.2399C24.1581 19.4594 24.3059 19.6518 24.4935 19.7999ZM25.2035 19.2399C25.4736 19.5156 25.7118 19.8209 25.9135 20.1499C25.9879 20.2627 26.0276 20.3948 26.0276 20.5299C26.0276 20.665 25.9879 20.7971 25.9135 20.9099C25.6933 21.2187 25.4105 21.4777 25.0835 21.6699C25.2807 21.3748 25.3788 21.0245 25.3635 20.6699C25.288 20.4266 25.1944 20.1892 25.0835 19.9599C25.0712 19.7099 25.1157 19.4603 25.2135 19.2299L25.2035 19.2399ZM26.2135 18.8799C26.0773 19.0612 26.0068 19.2833 26.0135 19.5099C26.027 19.7919 26.0774 20.071 26.1635 20.3399C26.3143 20.7525 26.5017 21.1507 26.7235 21.5299C26.8683 21.3368 26.9861 21.1249 27.0735 20.8999C26.8735 20.6199 26.7235 20.3399 26.5135 20.0699C26.3035 19.7999 26.2835 19.2399 26.2135 18.8799ZM26.4435 18.6799C26.5868 19.4255 26.8683 20.1378 27.2735 20.7799C27.3872 20.9905 27.5455 21.1738 27.7371 21.3171C27.9288 21.4604 28.1494 21.5603 28.3835 21.6099C28.59 21.6001 28.7883 21.5266 28.9513 21.3994C29.1142 21.2723 29.2338 21.0978 29.2935 20.8999C29.3642 20.7173 29.3876 20.5197 29.3613 20.3256C29.3351 20.1315 29.2602 19.9472 29.1435 19.7899C29.0996 19.9665 29.0113 20.129 28.8871 20.262C28.7628 20.395 28.6067 20.4941 28.4335 20.5499C27.9035 20.4999 27.1935 19.8699 26.4335 18.6799" fill="white"/>
<path d="M27.0035 18.2002C26.934 18.4623 26.934 18.7381 27.0035 19.0002C27.0303 19.1452 27.0867 19.2832 27.1693 19.4054C27.2519 19.5275 27.3589 19.6313 27.4835 19.7102C27.6459 19.8046 27.8372 19.8363 28.0214 19.7995C28.2055 19.7626 28.3699 19.6598 28.4835 19.5102L28.5635 19.4302C28.2123 19.3984 27.8778 19.2652 27.6009 19.0468C27.3239 18.8284 27.1164 18.5343 27.0035 18.2002ZM24.5035 21.6902C24.6853 21.631 24.8386 21.5062 24.9335 21.3402C25.0701 21.0852 25.139 20.7994 25.1335 20.5102C25.0572 20.2802 24.9385 20.0665 24.7835 19.8802C24.706 19.9666 24.6104 20.0349 24.5035 20.0802C24.4163 20.0053 24.3226 19.9384 24.2235 19.8802C24.0787 20.0733 23.9609 20.2852 23.8735 20.5102C23.8435 20.6547 23.8459 20.8041 23.8805 20.9476C23.915 21.0911 23.981 21.2252 24.0735 21.3402C24.1535 21.5702 24.3035 21.6202 24.5035 21.6902ZM24.5035 23.7902C24.5835 23.4402 25.2135 22.8802 25.2135 22.5302C25.2135 22.1802 24.7835 22.1002 24.5035 21.9002C24.2235 22.1002 23.9435 22.0502 23.7935 22.5302C23.7935 22.8102 24.4235 23.4402 24.5035 23.7902ZM25.2635 23.0302C24.9964 23.3648 24.7838 23.7394 24.6335 24.1402C24.6472 24.6591 24.7954 25.1657 25.0635 25.6102C25.3831 25.3443 25.6278 24.9996 25.7735 24.6102C25.8216 24.3206 25.8004 24.0238 25.7118 23.744C25.6231 23.4642 25.4695 23.2093 25.2635 23.0002V23.0302ZM25.9735 23.4802C25.8518 23.1414 25.6612 22.8315 25.4135 22.5702C25.3399 22.271 25.3701 21.9558 25.4991 21.676C25.6281 21.3962 25.8482 21.1685 26.1235 21.0302C26.3499 21.3788 26.5377 21.7509 26.6835 22.1402C26.7335 22.7202 26.1735 23.0002 25.9735 23.4802ZM27.2335 21.1002C27.3867 21.3176 27.5761 21.507 27.7935 21.6602V22.3702C27.6841 22.7783 27.5402 23.1764 27.3635 23.5602C27.1456 23.2911 26.9825 22.982 26.8835 22.6502C26.8258 22.3774 26.799 22.099 26.8035 21.8202C26.8835 21.7402 27.0835 21.3102 27.2335 21.1102V21.1002ZM28.4235 23.1102C28.718 22.6848 28.916 22.2001 29.0035 21.6902C28.8525 21.7749 28.6849 21.8259 28.5123 21.8397C28.3396 21.8535 28.1661 21.8298 28.0035 21.7702C27.9277 22.0688 27.9277 22.3816 28.0035 22.6802C28.1275 22.8566 28.2718 23.0177 28.4335 23.1602L28.4235 23.1102ZM28.3535 23.3102C28.2035 23.1602 28.0735 23.1102 28.0035 22.9602C27.8535 23.2402 27.7235 23.5202 27.5735 23.7902C27.7235 23.7902 27.8535 23.7902 27.9235 23.7102C28.0534 23.5631 28.1974 23.4291 28.3535 23.3102ZM26.7235 23.0002C26.9361 23.35 27.1734 23.6842 27.4335 24.0002C27.358 24.2435 27.2644 24.4809 27.1535 24.7102C26.9845 25.0157 26.7723 25.2953 26.5235 25.5402C26.3527 25.2786 26.2086 25.0006 26.0935 24.7102C25.9874 24.4895 25.9558 24.2404 26.0035 24.0002C26.1535 23.6502 26.5835 23.2902 26.7135 22.9402L26.7235 23.0002ZM24.5035 27.4302C24.6841 27.1622 24.851 26.8851 25.0035 26.6002C25.0713 26.4059 25.0713 26.1944 25.0035 26.0002C24.9235 25.8002 24.5735 25.2902 24.5235 25.1702C24.3297 25.4335 24.1559 25.711 24.0035 26.0002C23.9285 26.2035 23.9285 26.4269 24.0035 26.6302C24.1335 27.0602 24.4835 27.2602 24.4835 27.4602L24.5035 27.4302ZM25.8735 24.9302C25.6415 25.236 25.453 25.5726 25.3135 25.9302C25.2645 26.143 25.2929 26.3663 25.3935 26.5602C25.4735 26.7102 25.6735 27.0402 25.8235 27.3202C26.1056 27.1065 26.3236 26.8194 26.4535 26.4902C26.4964 26.3535 26.5114 26.2097 26.4977 26.0671C26.4839 25.9245 26.4417 25.7861 26.3735 25.6602C26.2935 25.4602 26.0235 25.2602 25.8635 24.9502L25.8735 24.9302ZM27.3335 24.9002C27.1366 25.1538 26.9751 25.433 26.8535 25.7302C26.7797 25.856 26.7407 25.9993 26.7407 26.1452C26.7407 26.2911 26.7797 26.4344 26.8535 26.5602C27.0035 26.8402 27.1335 27.0402 27.2035 27.1902C27.4066 26.9668 27.569 26.7096 27.6835 26.4302C27.7585 26.1586 27.7585 25.8718 27.6835 25.6002C27.5369 25.3795 27.4192 25.1409 27.3335 24.8902V24.9002ZM24.5035 31.5002C24.7827 30.8979 24.9714 30.2577 25.0635 29.6002C24.9894 29.1144 24.7971 28.6543 24.5035 28.2602C24.1764 28.6343 23.9798 29.1046 23.9435 29.6002C24.0132 30.2623 24.203 30.9061 24.5035 31.5002ZM25.3335 26.8702C25.6468 27.2396 25.8755 27.6731 26.0035 28.1402C25.8942 28.571 25.7504 28.9924 25.5735 29.4002C25.371 29.1952 25.2082 28.9545 25.0935 28.6902C24.9968 28.5618 24.9289 28.414 24.8944 28.257C24.8599 28.1 24.8596 27.9373 24.8935 27.7802C24.875 27.6068 24.9023 27.4316 24.9724 27.272C25.0426 27.1123 25.1533 26.9738 25.2935 26.8702H25.3335ZM26.6335 26.7902C26.4186 27.1032 26.2972 27.4708 26.2835 27.8502C26.4333 28.2029 26.621 28.5382 26.8435 28.8502C26.9916 28.5879 27.109 28.3094 27.1935 28.0202C27.1998 27.789 27.1525 27.5595 27.0553 27.3496C26.9582 27.1397 26.8138 26.9551 26.6335 26.8102" fill="white"/>
<path d="M25.0034 32.8905C25.094 32.406 25.2558 31.9376 25.4834 31.5005C25.5269 31.2937 25.5243 31.08 25.4759 30.8743C25.4276 30.6687 25.3345 30.4762 25.2034 30.3105C25.0127 30.9341 24.7754 31.5425 24.4934 32.1305C24.222 31.5379 23.985 30.9303 23.7834 30.3105C23.6523 30.4762 23.5592 30.6687 23.5109 30.8743C23.4625 31.08 23.4599 31.2937 23.5034 31.5005C23.7115 31.9478 23.8789 32.4131 24.0034 32.8905C23.9936 33.097 23.9201 33.2953 23.7929 33.4583C23.6658 33.6212 23.4913 33.7408 23.2934 33.8005C23.4678 33.8692 23.6599 33.879 23.8404 33.8285C24.021 33.7779 24.18 33.6698 24.2934 33.5205C24.3798 33.443 24.4481 33.3474 24.4934 33.2405C24.5683 33.3277 24.6352 33.4214 24.6934 33.5205C24.8057 33.6711 24.9647 33.7803 25.1457 33.831C25.3266 33.8816 25.5192 33.8709 25.6934 33.8005C25.528 33.7008 25.3843 33.5689 25.2709 33.4126C25.1575 33.2562 25.0768 33.0787 25.0334 32.8905H25.0034ZM22.7334 28.4905C22.8134 28.6905 23.0134 29.2005 23.0834 29.3205C23.1106 29.5035 23.0786 29.6904 22.9923 29.8541C22.906 30.0177 22.7698 30.1496 22.6034 30.2305C22.4154 30.117 22.2656 29.9498 22.1734 29.7505C22.1272 29.6603 22.1101 29.5581 22.1244 29.4578C22.1388 29.3575 22.1838 29.2641 22.2534 29.1905C22.3619 28.9228 22.5254 28.6809 22.7334 28.4805V28.4905ZM23.7334 29.4805C23.7004 29.9117 23.6061 30.3359 23.4534 30.7405C23.3471 30.9647 23.1924 31.1627 23.0005 31.32C22.8086 31.4774 22.5841 31.5902 22.3434 31.6505C22.1132 31.6115 21.8966 31.5153 21.7134 31.3705C21.7311 31.2409 21.7857 31.1191 21.8709 31.0198C21.956 30.9204 22.068 30.8478 22.1934 30.8105C22.8298 30.5289 23.3665 30.0619 23.7334 29.4705V29.4805ZM22.3934 30.4705C22.3062 30.3956 22.2125 30.3287 22.1134 30.2705C21.8649 30.3614 21.6268 30.4787 21.4034 30.6205C21.1135 30.8344 20.8573 31.0906 20.6434 31.3805C20.891 31.4568 21.1558 31.4568 21.4034 31.3805C21.4579 31.1219 21.6125 30.8954 21.8334 30.7505C22.0004 30.6221 22.1905 30.527 22.3934 30.4705ZM22.0034 30.0905C21.8673 29.9092 21.7967 29.6871 21.8034 29.4605L20.9734 30.0205C20.706 30.2243 20.4672 30.4631 20.2634 30.7305C20.5354 30.6457 20.8126 30.5789 21.0934 30.5305C21.4434 30.3805 21.7234 30.2505 22.0034 30.1005V30.0905ZM20.8934 30.8105C20.4126 30.963 19.9213 31.08 19.4234 31.1605C19.0813 31.3081 18.772 31.5222 18.5134 31.7905L19.2734 31.9905C19.533 31.8027 19.8111 31.6418 20.1034 31.5105C20.4077 31.3276 20.6728 31.0863 20.8834 30.8005L20.8934 30.8105ZM20.1734 33.1005C20.3234 33.0205 20.3234 32.9005 20.2534 32.7505C20.1365 32.584 19.9677 32.4609 19.7734 32.4005C19.3434 32.2505 18.8634 32.1205 18.4334 31.9705C18.3585 32.0577 18.2916 32.1514 18.2334 32.2505C18.2334 32.3305 18.2334 32.4005 18.3834 32.4005H19.2934C19.3427 32.4424 19.3771 32.4991 19.3915 32.5622C19.406 32.6253 19.3996 32.6913 19.3734 32.7505C19.5033 32.6681 19.6504 32.6168 19.8034 32.6005C19.8994 32.6535 19.983 32.7265 20.0485 32.8144C20.114 32.9024 20.16 33.0033 20.1834 33.1105L20.1734 33.1005ZM19.4734 32.0005C19.721 32.0632 19.9596 32.1573 20.1834 32.2805C20.2634 32.2005 20.3334 32.2005 20.3834 32.1305C20.5149 31.8958 20.7087 31.702 20.9434 31.5705C20.8213 31.5802 20.6992 31.5523 20.5934 31.4905C20.4434 31.5705 20.3134 31.5705 20.1634 31.6405C19.92 31.7213 19.6906 31.8394 19.4834 31.9905L19.4734 32.0005ZM21.4834 31.5105C21.4034 31.5905 21.2834 31.5905 21.1334 31.5905C20.7603 31.813 20.4879 32.1714 20.3734 32.5905C20.3277 32.7112 20.3314 32.8451 20.3839 32.9631C20.4363 33.081 20.5332 33.1735 20.6534 33.2205C20.8018 33.2857 20.9691 33.2931 21.1226 33.2413C21.2762 33.1895 21.4049 33.0822 21.4834 32.9405C21.4834 32.8605 21.5634 32.8605 21.5634 32.7905C21.5122 32.8319 21.4533 32.8627 21.3902 32.8814C21.327 32.9 21.2608 32.906 21.1954 32.899C21.1299 32.892 21.0665 32.8722 21.0086 32.8408C20.9508 32.8093 20.8998 32.7667 20.8584 32.7155C20.7749 32.6121 20.7358 32.4797 20.7499 32.3475C20.764 32.2152 20.83 32.094 20.9334 32.0105C21.0134 32.0105 21.0134 31.9305 21.0834 31.9305C21.3092 31.7852 21.5753 31.7151 21.8434 31.7305C21.6934 31.6505 21.5634 31.5305 21.4934 31.5305" fill="white"/>
<path d="M16.9432 36.9995C17.0292 36.6562 17.1464 36.3215 17.2932 35.9995C17.6432 35.2895 18.3532 33.5495 19.9432 33.2695C20.0932 33.2695 19.7932 32.8395 19.5932 32.9195C19.3903 32.976 19.2002 33.0711 19.0332 33.1995V32.7695C19.0332 32.6895 18.9532 32.6895 18.8832 32.6895C18.6871 32.693 18.4948 32.7445 18.3232 32.8395C17.779 33.5812 17.3352 34.3916 17.0032 35.2495C16.6532 36.0795 16.4432 36.3595 16.0032 36.2495C15.5632 36.1395 15.4432 35.6895 14.7432 35.8195C14.4706 35.8927 14.2244 36.0418 14.0332 36.2495C14.0685 36.3293 14.1315 36.3935 14.2106 36.4303C14.2897 36.4671 14.3795 36.4739 14.4632 36.4495C14.8835 36.4608 15.2937 36.5814 15.6532 36.7995C16.0789 36.8985 16.5095 36.9753 16.9432 37.0295V36.9995ZM23.3132 31.5195C23.3613 31.7991 23.482 32.0612 23.6632 32.2795C23.6632 32.2795 23.1832 34.5295 21.4132 34.7295C21.4885 34.3921 21.6885 34.0956 21.9732 33.8995C22.5332 33.5495 23.3132 32.9895 23.2332 32.1595C23.0724 32.2529 22.9273 32.371 22.8032 32.5095C22.5232 32.8595 22.0432 33.7695 21.1332 33.7695C21.2163 33.4891 21.3839 33.2411 21.6132 33.0595C22.0267 32.8343 22.388 32.5242 22.6732 32.1495C22.801 31.8708 23.0245 31.6473 23.3032 31.5195H23.3132ZM22.4732 39.7595L23.5332 41.2995L24.3632 39.8295L24.0832 39.3495L23.5232 40.4095L22.8132 39.3495L22.4632 39.7495" fill="white"/>
<path d="M22.2036 38.4803L19.7536 35.0003L20.1836 34.7203L18.9236 34.2403V35.6303L19.3536 35.2803L21.9336 38.9203L22.2136 38.4903L22.2036 38.4803ZM13.3936 30.2503C13.7436 29.9003 14.2236 30.1703 14.7836 30.7303C15.3436 31.2903 15.6936 31.7303 15.3436 32.0703C14.9936 32.4103 14.5136 32.1503 13.9536 31.6403C13.3936 31.1303 13.1236 30.6403 13.3936 30.2503Z" fill="white"/>
<path d="M14.2934 36.3805C14.1344 36.2441 14.0085 36.0732 13.9253 35.8809C13.8422 35.6886 13.8039 35.4798 13.8134 35.2705C13.7967 35.0679 13.8221 34.8641 13.8881 34.6719C13.9541 34.4796 14.0593 34.3032 14.197 34.1537C14.3346 34.0041 14.5018 33.8848 14.688 33.8031C14.8741 33.7215 15.0752 33.6794 15.2784 33.6794C15.4817 33.6794 15.6827 33.7215 15.8688 33.8031C16.055 33.8848 16.2222 34.0041 16.3598 34.1537C16.4975 34.3032 16.6027 34.4796 16.6687 34.6719C16.7347 34.8641 16.7601 35.0679 16.7434 35.2705V35.5505C16.8403 35.2885 16.9574 35.0345 17.0934 34.7905C16.9597 34.3118 16.6447 33.904 16.2153 33.6538C15.7858 33.4036 15.2758 33.3307 14.7934 33.4505C14.2808 33.6147 13.8534 33.9739 13.6034 34.4505C13.686 33.8309 13.9505 33.2497 14.3634 32.7805C14.6122 32.5887 14.8933 32.4431 15.1934 32.3505C14.9373 32.3512 14.6843 32.2951 14.4526 32.1861C14.2209 32.0772 14.0162 31.9181 13.8534 31.7205C13.4558 31.4369 13.1835 31.0105 13.0934 30.5305C13.1555 30.9072 13.1032 31.2938 12.9434 31.6405C12.5335 32.4167 12.3663 33.2981 12.4634 34.1705C12.6537 35.0049 13.0931 35.7617 13.7234 36.3405C13.7927 36.4156 13.8461 36.5039 13.8804 36.6001C13.9148 36.6963 13.9294 36.7985 13.9234 36.9005H15.2634C15.2634 36.9005 15.5434 36.9005 15.5434 36.7005C15.5434 36.5005 15.3934 36.5005 15.2634 36.5005C14.9267 36.536 14.5864 36.502 14.2634 36.4005L14.2934 36.3805ZM20.0534 36.7005C19.3971 36.901 18.7292 37.0613 18.0534 37.1805C17.6599 37.2426 17.2617 37.2694 16.8634 37.2605V37.4605C16.8903 37.4862 16.9113 37.5173 16.9251 37.5518C16.9389 37.5863 16.9451 37.6234 16.9434 37.6605C17.3649 37.6714 17.7866 37.6446 18.2034 37.5805C18.9536 37.4899 19.6874 37.2947 20.3834 37.0005L20.0834 36.6705L20.0534 36.7005ZM21.2234 36.6705C22.2996 36.1168 23.1949 35.2667 23.8034 34.2205L23.9534 34.0205C23.879 34.0583 23.7968 34.0779 23.7134 34.0779C23.63 34.0779 23.5478 34.0583 23.4734 34.0205L23.3934 34.1705C22.7738 35.0914 21.9575 35.8633 21.0034 36.4305L21.2034 36.6805L21.2234 36.6705ZM15.2034 37.0805H14.4434C14.3935 37.0655 14.341 37.0609 14.2893 37.0671C14.2375 37.0732 14.1876 37.0899 14.1425 37.1162C14.0975 37.1424 14.0584 37.1777 14.0276 37.2197C13.9968 37.2617 13.9749 37.3097 13.9634 37.3605C13.8834 37.5105 13.9634 37.6405 14.1134 37.7905C14.2634 37.9405 14.3934 37.8705 14.4634 37.7905C14.7506 37.6495 15.0279 37.4891 15.2934 37.3105C15.3434 37.1605 15.4234 37.0105 15.1934 37.0805H15.2034ZM15.8234 37.4305C15.7151 37.3755 15.5949 37.348 15.4734 37.3505C15.1957 37.5016 14.94 37.69 14.7134 37.9105C14.6334 38.0605 14.7134 38.1105 14.8634 38.1905C14.9429 38.2523 15.0432 38.281 15.1434 38.2705C15.2751 38.2676 15.4005 38.2138 15.4934 38.1205C15.5734 38.0405 15.8434 37.6905 15.9234 37.6405C15.9056 37.5671 15.8714 37.4988 15.8234 37.4405V37.4305ZM15.9034 37.7905C15.8234 37.8705 15.5534 38.2205 15.5534 38.2205C15.5534 38.2205 15.5534 38.3005 15.6334 38.3705H15.7134C15.964 38.3705 16.2097 38.3013 16.4234 38.1705C16.6534 38.0405 16.8534 37.6905 16.6234 37.6105C16.5657 37.5732 16.5009 37.5482 16.433 37.5371C16.3652 37.5259 16.2958 37.5289 16.2292 37.5458C16.1626 37.5627 16.1001 37.5931 16.0458 37.6352C15.9915 37.6773 15.9464 37.7302 15.9134 37.7905H15.9034ZM16.0634 36.8805C15.998 36.8428 15.9239 36.8229 15.8484 36.8229C15.7729 36.8229 15.6988 36.8428 15.6334 36.8805C15.5534 37.0305 15.6334 37.1605 15.8334 37.2305C15.9465 37.2988 16.0731 37.3413 16.2045 37.3552C16.3358 37.369 16.4686 37.3537 16.5934 37.3105C16.6934 37.2305 16.5434 37.0105 16.0634 36.8805ZM26.4034 28.4905C26.3234 28.6905 26.1234 29.2005 26.0534 29.3205C26.0263 29.5035 26.0582 29.6904 26.1445 29.8541C26.2308 30.0177 26.367 30.1496 26.5334 30.2305C26.7214 30.117 26.8712 29.9498 26.9634 29.7505C27.0096 29.6603 27.0267 29.5581 27.0124 29.4578C26.998 29.3575 26.953 29.2641 26.8834 29.1905C26.6834 28.8905 26.5334 28.6805 26.4034 28.4805V28.4905ZM25.3434 29.4805C25.366 29.9211 25.4855 30.3513 25.6934 30.7405C25.7997 30.9647 25.9544 31.1627 26.1463 31.32C26.3382 31.4774 26.5627 31.5902 26.8034 31.6505C27.0336 31.6115 27.2502 31.5153 27.4334 31.3705C27.4216 31.245 27.3752 31.1252 27.2992 31.0245C27.2233 30.9239 27.1209 30.8463 27.0034 30.8005C26.344 30.5219 25.7807 30.056 25.3834 29.4605" fill="white"/>
<path d="M26.6033 30.4399C26.6905 30.365 26.7842 30.2981 26.8833 30.2399C27.1318 30.3308 27.3699 30.4481 27.5933 30.5899C27.8832 30.8038 28.1394 31.06 28.3533 31.3499C28.1057 31.4262 27.8409 31.4262 27.5933 31.3499C27.5388 31.0913 27.3842 30.8648 27.1633 30.7199C27.0833 30.5899 26.8833 30.5199 26.6033 30.4399ZM27.0333 30.0899C27.179 29.883 27.2495 29.6325 27.2333 29.3799L28.0633 29.9399C28.3307 30.1437 28.5695 30.3825 28.7733 30.6499C28.5013 30.5651 28.2241 30.4983 27.9433 30.4499C27.6338 30.3631 27.3471 30.2095 27.1033 29.9999L27.0333 30.0899ZM28.1033 30.7799C28.5841 30.9324 29.0754 31.0494 29.5733 31.1299C29.9154 31.2775 30.2247 31.4917 30.4833 31.7599L29.7233 31.9599C29.4637 31.7721 29.1856 31.6113 28.8933 31.4799C28.5839 31.304 28.3174 31.0615 28.1133 30.7699L28.1033 30.7799ZM28.7933 33.0699C28.6433 32.9899 28.6433 32.8699 28.7133 32.7199C28.8302 32.5534 28.999 32.4303 29.1933 32.3699C29.6233 32.2199 30.1033 32.0899 30.5333 31.9399C30.6082 32.0271 30.6751 32.1208 30.7333 32.2199C30.7333 32.2999 30.7333 32.3699 30.5833 32.3699H29.6733C29.624 32.4118 29.5896 32.4685 29.5752 32.5316C29.5607 32.5947 29.5671 32.6607 29.5933 32.7199C29.4634 32.6375 29.3163 32.5862 29.1633 32.5699C28.9761 32.6851 28.8401 32.8676 28.7833 33.0799L28.7933 33.0699ZM29.5333 31.9999C29.2857 32.0626 29.0471 32.1567 28.8233 32.2799C28.7843 32.2775 28.7475 32.261 28.7199 32.2333C28.6922 32.2057 28.6757 32.1689 28.6733 32.1299C28.5418 31.8952 28.348 31.7014 28.1133 31.5699C28.2354 31.5796 28.3575 31.5517 28.4633 31.4899C28.6133 31.5699 28.7433 31.5699 28.8933 31.6399C29.1162 31.7318 29.3276 31.8492 29.5233 31.9899L29.5333 31.9999ZM27.5233 31.5099C27.6033 31.5899 27.7233 31.5899 27.8733 31.5899C28.2464 31.8124 28.5188 32.1708 28.6333 32.5899C28.679 32.7106 28.6753 32.8445 28.6228 32.9625C28.5704 33.0804 28.4735 33.173 28.3533 33.2199C28.2049 33.2851 28.0376 33.2925 27.8841 33.2407C27.7305 33.1889 27.6018 33.0816 27.5233 32.9399C27.5233 32.8599 27.4433 32.8599 27.4433 32.7899C27.5467 32.8734 27.6791 32.9125 27.8113 32.8984C27.9435 32.8844 28.0648 32.8183 28.1483 32.7149C28.2318 32.6115 28.2709 32.4791 28.2568 32.3469C28.2427 32.2147 28.1767 32.0934 28.0733 32.0099C27.9933 32.0099 27.9933 31.9299 27.9233 31.9299C27.6975 31.7846 27.4314 31.7145 27.1633 31.7299C27.3133 31.6499 27.4433 31.5299 27.5133 31.5299L27.5233 31.5099ZM32.1433 36.9999C32.0541 36.6563 31.9335 36.3216 31.7833 35.9999C31.4333 35.2899 30.7233 33.5499 29.1333 33.2699C28.9833 33.2699 29.2833 32.8399 29.4833 32.9199C29.6862 32.9764 29.8763 33.0715 30.0433 33.1999V32.7699C30.0433 32.6899 30.1233 32.6899 30.1933 32.6899C30.2919 32.6735 30.393 32.6783 30.4896 32.7042C30.5862 32.7301 30.6761 32.7764 30.7533 32.8399C31.3076 33.5929 31.7582 34.417 32.0933 35.2899C32.4433 36.1199 32.6533 36.3999 33.0933 36.2899C33.5333 36.1799 33.7233 35.7299 34.3533 35.8599C34.6259 35.9331 34.8721 36.0822 35.0633 36.2899C35.028 36.3697 34.965 36.4339 34.8859 36.4707C34.8068 36.5075 34.717 36.5143 34.6333 36.4899C34.213 36.5012 33.8028 36.6218 33.4433 36.8399C32.99 36.9399 32.56 37.0166 32.1533 37.0699L32.1433 36.9999ZM25.6933 31.4999C25.6452 31.7795 25.5245 32.0416 25.3433 32.2599C25.3433 32.2599 25.8233 34.5099 27.5933 34.7099C27.518 34.3725 27.318 34.076 27.0333 33.8799C26.4733 33.5299 25.6933 32.9699 25.7733 32.1399C25.9341 32.2333 26.0792 32.3514 26.2033 32.4899C26.4833 32.8399 26.9633 33.7499 27.8733 33.7499C27.7902 33.4695 27.6226 33.2215 27.3933 33.0399C26.9798 32.8147 26.6185 32.5046 26.3333 32.1299C26.1981 31.8565 25.9767 31.6351 25.7033 31.4999H25.6933ZM24.5033 33.6499C24.7862 34.2083 25.1427 34.7263 25.5633 35.1899C25.8433 35.4699 26.5633 36.1899 26.9533 36.5299C26.339 36.3887 25.7668 36.1043 25.2833 35.6999C25.049 35.8384 24.7915 35.9333 24.5233 35.9799C24.2524 35.9439 23.9928 35.8482 23.7633 35.6999C23.2892 36.1185 22.7132 36.4047 22.0933 36.5299C22.4433 36.1799 23.2033 35.4699 23.4833 35.1899C23.9398 34.7679 24.2835 34.2385 24.4833 33.6499" fill="white"/>
<path d="M24.5035 36.1803C24.7205 36.1663 24.9335 36.1156 25.1335 36.0303C25.0036 36.3595 24.7856 36.6466 24.5035 36.8603C24.238 36.6305 24.0234 36.3478 23.8735 36.0303C24.0735 36.1156 24.2865 36.1663 24.5035 36.1803Z" fill="white"/>
<path d="M25.4134 41.2896L29.6834 35.3496L30.1134 35.6996V34.3096L28.8534 34.7896L29.2834 35.0696L25.5134 40.3796L23.5134 36.8896L23.3134 37.2396L21.6434 39.8196L21.2134 39.5396V40.9296L22.5534 40.4496L22.1234 40.1696L23.5934 37.9196L25.4134 41.2796" fill="white"/>
<path d="M26.1735 38.9096L25.4635 37.7996C25.3835 37.9996 25.1135 38.3596 24.9035 38.8596L24.6235 38.2996L25.4535 36.8296L25.6535 37.1796L26.4135 38.5196L26.1635 38.8996L26.1735 38.9096ZM27.0735 39.2496L27.3535 39.7296L27.7835 39.4496V40.8396L26.4435 40.3596L26.8735 40.0796L26.6735 39.7996L27.0735 39.2396V39.2496ZM35.6235 30.2396C35.2735 29.8896 34.7935 30.1596 34.2335 30.7196C33.6735 31.2796 33.3235 31.7196 33.6735 32.0596C34.0235 32.3996 34.5035 32.1396 35.0635 31.6296C35.6235 31.1196 35.8935 30.6296 35.6235 30.2396Z" fill="white"/>
<path d="M34.7936 36.3795C34.9526 36.2431 35.0785 36.0722 35.1617 35.8799C35.2448 35.6876 35.2831 35.4788 35.2736 35.2695C35.2432 34.9019 35.0757 34.5591 34.8043 34.3092C34.5329 34.0593 34.1775 33.9206 33.8086 33.9206C33.4397 33.9206 33.0843 34.0593 32.8129 34.3092C32.5415 34.5591 32.374 34.9019 32.3436 35.2695V35.5495C32.2636 35.3995 31.9936 34.8395 31.9936 34.7895C32.1273 34.3108 32.4423 33.9031 32.8717 33.6529C33.3012 33.4027 33.8112 33.3297 34.2936 33.4495C34.8062 33.6137 35.2336 33.9729 35.4836 34.4495C35.401 33.8299 35.1365 33.2488 34.7236 32.7795C34.4748 32.5878 34.1937 32.4421 33.8936 32.3495C34.1497 32.3502 34.4027 32.2941 34.6344 32.1851C34.8661 32.0762 35.0708 31.9171 35.2336 31.7195C35.6371 31.4354 35.9134 31.0047 36.0036 30.5195C35.9415 30.8962 35.9938 31.2828 36.1536 31.6295C36.5635 32.4057 36.7307 33.2871 36.6336 34.1595C36.4433 34.9939 36.0039 35.7507 35.3736 36.3295C35.3043 36.4046 35.2509 36.4929 35.2166 36.5891C35.1822 36.6853 35.1676 36.7875 35.1736 36.8895H33.8036C33.8036 36.8895 33.5236 36.8895 33.5236 36.6895C33.5236 36.4895 33.6736 36.4895 33.8036 36.4895C34.1402 36.517 34.4791 36.4831 34.8036 36.3895L34.7936 36.3795ZM27.8736 36.6895C26.8134 36.1136 25.9235 35.2686 25.2936 34.2395L25.1436 34.0395C25.218 34.0773 25.3002 34.097 25.3836 34.097C25.467 34.097 25.5492 34.0773 25.6236 34.0395L25.7036 34.1895C26.3215 35.1057 27.1342 35.874 28.0836 36.4395L27.8836 36.6895H27.8736ZM28.8836 36.6895C29.5399 36.89 30.2078 37.0503 30.8836 37.1695C31.2771 37.2317 31.6753 37.2584 32.0736 37.2495V37.4495C32.0467 37.4752 32.0257 37.5063 32.0119 37.5408C31.9981 37.5753 31.9919 37.6124 31.9936 37.6495C31.5721 37.6604 31.1504 37.6336 30.7336 37.5695C30.0009 37.4776 29.2843 37.2858 28.6036 36.9995L28.9036 36.6695L28.8836 36.6895ZM33.7336 37.0695H34.4936C34.6986 37.0647 34.898 37.136 35.0536 37.2695C35.0551 37.359 35.0381 37.4478 35.0037 37.5304C34.9693 37.613 34.9182 37.6876 34.8536 37.7495C34.7036 37.8295 34.5736 37.8295 34.5036 37.7495C34.2164 37.6085 33.9391 37.4481 33.6736 37.2695C33.6236 37.2195 33.5436 36.9895 33.7536 37.0695H33.7336ZM33.1236 37.4195C33.2576 37.3562 33.4058 37.3287 33.5536 37.3395C33.8313 37.4906 34.087 37.679 34.3136 37.8995C34.3936 38.0495 34.3136 38.0995 34.1636 38.1795C34.0841 38.2413 33.9838 38.27 33.8836 38.2595C33.7519 38.2566 33.6265 38.2028 33.5336 38.1095C33.4536 38.0295 33.1836 37.6795 33.1036 37.6295C33.1173 37.5635 33.1173 37.4955 33.1036 37.4295L33.1236 37.4195ZM33.0036 37.7995C33.0836 37.8795 33.3536 38.2295 33.3536 38.2295C33.3536 38.2295 33.3536 38.3095 33.2736 38.3795H33.1936C32.943 38.3795 32.6973 38.3103 32.4836 38.1795C32.2836 38.0295 32.0536 37.6995 32.2836 37.6195C32.3403 37.579 32.4052 37.5514 32.4737 37.5385C32.5422 37.5257 32.6127 37.5279 32.6803 37.545C32.7479 37.5621 32.8109 37.5938 32.865 37.6377C32.9191 37.6817 32.963 37.7369 32.9936 37.7995H33.0036ZM32.8436 36.8895C32.909 36.8518 32.9831 36.8319 33.0586 36.8319C33.1341 36.8319 33.2082 36.8518 33.2736 36.8895C33.3536 37.0395 33.2736 37.1695 33.0736 37.2395C32.9614 37.3098 32.8346 37.3536 32.7029 37.3674C32.5712 37.3813 32.438 37.3649 32.3136 37.3195C32.2136 37.2395 32.3636 37.0195 32.8436 36.8895Z" fill="white"/>
<path d="M95.6734 14.6901C95.4734 12.7901 94.5634 11.8301 92.4634 11.8301H89.8134L89.4634 22.5501H91.4634C91.4634 22.5501 91.6634 17.5501 91.6634 17.3701H94.1134C94.1134 17.5701 94.5434 22.5501 94.5434 22.5501H96.5434C96.4634 22.4701 95.7634 15.1201 95.6834 14.6901H95.6734ZM91.6834 15.5501C91.6834 15.3501 91.7634 13.8101 91.7634 13.5501H92.1134C93.5034 13.5501 93.7834 13.8301 93.9334 15.5501H91.6834ZM72.0834 29.4101C71.8834 27.5101 70.9734 26.5501 68.8734 26.5501H66.2234L65.8734 37.2701H67.8734C67.8734 37.2701 68.0734 32.2701 68.0734 32.0901H70.5234C70.5234 32.2901 70.9534 37.2701 70.9534 37.2701H72.9534C72.8734 37.1701 72.1734 29.8101 72.0934 29.4101H72.0834ZM68.0934 30.2401C68.0934 30.0401 68.1734 28.5001 68.1734 28.2401H68.5234C69.9134 28.2401 70.1934 28.5201 70.3434 30.2401H68.0934ZM57.5234 11.8301V22.5301H59.5234V13.5301H61.9034V22.5301H63.9034V11.8301H57.5234ZM78.3334 15.5501H77.2734C76.9184 15.5654 76.5684 15.4673 76.2734 15.2701C76.2044 15.195 76.1504 15.1067 76.1164 15.0105C76.0824 14.9142 76.0674 14.8121 76.0734 14.7101V11.8301H74.0734V14.9101C74.0624 15.2455 74.1314 15.5786 74.2754 15.8815C74.4204 16.1844 74.6354 16.448 74.9034 16.6501C75.4614 17.1225 76.1724 17.375 76.9034 17.3601H78.2934V22.5401H80.2934V11.8301H78.2934V15.5501H78.3334ZM82.4434 11.8301V13.5701H84.0634V22.5701H86.0634V13.5701H87.6834V11.8301H82.4434ZM79.5634 26.4401V29.8801H76.8334V26.4501H74.8834V37.1701H76.8334V31.7101H79.5634V37.1701H81.5634V26.4501L79.5634 26.4401ZM60.4034 30.0001H59.4934V28.2901H63.0034V26.5501H57.5434V37.2701H60.5434C61.0154 37.2766 61.4824 37.1855 61.9174 37.0025C62.3524 36.8194 62.7444 36.5485 63.0694 36.2067C63.3944 35.8648 63.6454 35.4594 63.8054 35.016C63.9664 34.5726 64.0334 34.1008 64.0034 33.6301C63.9234 32.4201 63.5234 30.0401 60.4334 30.0401L60.4034 30.0001ZM60.1534 35.5501C59.9534 35.5501 59.4434 35.4701 59.4434 35.4701V31.7101H59.7934C60.7934 31.7101 61.9634 31.6301 61.9634 33.6101C61.9634 35.4301 60.7034 35.5601 60.1434 35.5601L60.1534 35.5501ZM72.6634 16.8001C72.6774 15.6157 72.4354 14.4422 71.9534 13.3601C71.7334 12.8182 71.3554 12.3549 70.8684 12.0304C70.3814 11.7059 69.8084 11.5351 69.2234 11.5401H69.1434C68.5604 11.5456 67.9924 11.7206 67.5074 12.0438C67.0224 12.367 66.6424 12.8244 66.4134 13.3601C65.9364 14.4437 65.6944 15.6161 65.7034 16.8001V17.1501C65.6784 18.0234 65.7964 18.895 66.0534 19.7301C66.6134 21.9001 67.7934 22.6601 69.1334 22.7301H69.2134C70.5534 22.7301 71.7434 21.9701 72.2934 19.7301C72.5094 18.8864 72.6264 18.0207 72.6434 17.1501V16.8001H72.6634ZM67.6434 17.1501C67.6434 14.2901 68.3534 13.3101 69.1134 13.3101C69.8734 13.3101 70.5834 14.3101 70.5834 17.1501C70.5834 19.9901 69.8734 20.9201 69.1134 20.9201C68.3534 20.9201 67.7234 19.9201 67.6434 17.1501ZM91.2334 37.1501L88.8534 30.8501C89.4184 30.4215 89.8234 29.8159 90.0034 29.1301C90.1534 28.4201 90.3534 26.4801 90.3534 26.4801H88.3534C88.3534 26.6801 88.2734 27.3101 88.2034 28.0201C88.1234 29.0801 87.7734 30.0201 86.8134 30.0201H86.1034V26.5001H84.1034V37.1701H86.1034V31.7101H87.2934L89.2934 37.1701L91.2334 37.1501Z" fill="white"/>
</svg>
