<svg width="144" height="40" viewBox="0 0 144 40" fill="none" xmlns="http://www.w3.org/2000/svg">
<path d="M40.0034 32.44C40.0034 37.3 37.3034 40 32.4434 40H7.56342C2.70342 40 0.00341797 37.3 0.00341797 32.44V7.56C0.00341797 2.7 2.70342 0 7.56342 0H32.4534C37.3034 0 40.0034 2.7 40.0034 7.56V32.44Z" fill="#FFE600"/>
<path fill-rule="evenodd" clip-rule="evenodd" d="M25.7232 18.0496V14.2297L27.1027 12.8492V16.1592L28.3034 17.3589L33.1327 12.5295L34.3231 13.7188C34.3128 12.8194 34.1329 10.2094 31.9228 8.03936C29.5431 5.73982 26.9629 6.77908 26.083 7.65902L21.2629 12.4791L22.4933 13.7096L20.0036 16.2188L17.5129 13.7291L18.7433 12.4997L13.9232 7.67958C13.0433 6.79964 10.4631 5.75935 8.08339 8.05889C5.87328 10.2289 5.69339 12.8389 5.68311 13.7394L6.87348 12.549L11.7028 17.3794L12.9035 16.1798V12.8697L14.283 14.2493V18.0692L16.2228 19.9997L6.66275 29.5597L10.4436 33.3292L20.0036 23.7795L29.5626 33.3395L33.3435 29.569L23.7834 19.9997L25.7232 18.0496ZM46.6741 21.6701H53.8842V23.9399H49.3745V26.2702H50.8743C51.8838 26.2702 53.1841 26.3905 54.1638 27.3506C54.5842 27.77 55.1044 28.54 55.1044 29.7797C55.1044 30.1539 55.0581 30.5126 54.9687 30.8478C54.8186 31.407 54.5462 31.8983 54.1638 32.2797C53.9037 32.5398 53.6087 32.7392 53.2849 32.8903C53.1379 32.9582 52.9847 33.0167 52.8254 33.0671C52.7472 33.0918 52.6681 33.1144 52.5869 33.135C51.9989 33.284 51.3431 33.3303 50.644 33.3303H46.6741V21.6701ZM50.4343 31.1603C50.8044 31.1603 51.4644 31.1304 51.8838 30.7902C51.965 30.7203 52.1037 30.5825 52.2055 30.3636C52.2795 30.2063 52.334 30.0069 52.334 29.7602C52.334 29.6718 52.3268 29.5885 52.3145 29.5104C52.3011 29.4271 52.2806 29.35 52.2559 29.2781C52.2168 29.165 52.1654 29.0663 52.1079 28.981C52.0534 28.9008 51.9927 28.8329 51.9321 28.7764C51.9053 28.7517 51.8786 28.7291 51.8519 28.7086L51.8139 28.6798C51.3945 28.3796 50.7139 28.3704 50.4343 28.3704H49.3642V31.1705H50.4343V31.1603ZM64.8833 25.5301H62.3638V26.41C61.8776 25.7491 61.231 25.4612 60.6595 25.3441C60.385 25.2875 60.128 25.27 59.9132 25.27C58.8338 25.27 57.884 25.6596 57.2035 26.3401C56.4839 27.0597 55.9935 28.1802 55.9935 29.4898C55.9935 30.5198 56.3132 31.5396 57.1336 32.4103C57.994 33.32 58.9335 33.5996 60.054 33.5996C60.384 33.5996 60.8003 33.5585 61.2187 33.3796C61.6227 33.2069 62.0297 32.9057 62.3638 32.3897V33.3303H64.8833V25.5301ZM58.584 29.4199C58.584 29.0344 58.6806 28.7219 58.8112 28.4752C58.9181 28.2748 59.0466 28.1175 59.1638 28.0003C59.4938 27.6703 59.9933 27.4401 60.534 27.4503C60.9935 27.4503 61.5538 27.62 61.9331 27.99C62.003 28.0558 62.0678 28.1278 62.1264 28.2049C62.1932 28.2943 62.2518 28.3909 62.3021 28.4927C62.4399 28.7692 62.5139 29.0879 62.5139 29.4199C62.5139 30.0901 62.2333 30.5805 61.9033 30.8899C61.7388 31.0544 61.5394 31.189 61.3174 31.2826C61.0943 31.3772 60.8486 31.4296 60.5937 31.4296C59.9933 31.4296 59.4537 31.1901 59.1031 30.82C58.8831 30.5702 58.584 30.12 58.584 29.4199ZM66.4037 25.5301H68.9232V28.2398H71.744V25.5301H74.2635V33.3303H71.744V30.27H68.9232V33.3303H66.4037V25.5301ZM78.2931 25.5301H75.7736V33.3303H78.2931V29.8702L80.9535 33.3303H84.2039L80.6338 29.1506L83.9736 25.5301H80.8435L78.2931 28.6304V25.5301ZM50.7828 6.67012C51.7933 6.67012 52.9138 6.80992 53.8431 7.63023C54.8433 8.49989 54.9831 9.66046 54.9831 10.4602C54.9831 11.9302 54.4228 12.7505 53.9829 13.21C53.0536 14.1506 51.8334 14.24 51.0131 14.24H49.3735V18.3303H46.6833V6.67012H50.7828ZM49.3632 12.0402H50.3233C50.4662 12.0402 50.6482 12.0371 50.8435 12.0093C51.157 11.9651 51.5034 11.8582 51.7738 11.6002C52.0133 11.3597 52.2137 10.9505 52.2137 10.4499C52.2137 10.2258 52.1778 10.0192 52.113 9.83829C52.0369 9.62448 51.9197 9.44458 51.7738 9.30992C51.3729 8.9306 50.7931 8.86995 50.2729 8.86995H49.3632V12.0402ZM64.0733 10.5301H61.5538V11.41C61.2084 10.9403 60.7818 10.6586 60.3593 10.4931C59.9008 10.3132 59.4465 10.27 59.1031 10.27C58.0238 10.27 57.0739 10.6596 56.3934 11.3401C55.6739 12.0597 55.1835 13.1802 55.1835 14.4898C55.1835 15.1559 55.3171 15.8179 55.6338 16.4378C55.8065 16.777 56.0336 17.1029 56.3235 17.4103C57.1839 18.32 58.1235 18.5996 59.244 18.5996C59.5729 18.5996 59.9861 18.5595 60.4025 18.3827C60.8085 18.21 61.2176 17.9088 61.5538 17.3897V18.3303H64.0733V10.5301ZM57.774 14.4199C57.774 13.7199 58.0937 13.2604 58.3537 13.0003C58.6837 12.6703 59.1936 12.4401 59.724 12.4503C59.8597 12.4503 60.0036 12.4658 60.1496 12.4956C60.2349 12.513 60.3202 12.5357 60.4056 12.5644C60.6677 12.6528 60.9206 12.7927 61.1231 12.99C61.3163 13.173 61.4664 13.4022 61.5651 13.6603C61.6072 13.7702 61.6401 13.8854 61.6638 14.0036C61.6741 14.055 61.6823 14.1074 61.6884 14.1609C61.6936 14.203 61.6967 14.2462 61.6987 14.2894C61.7018 14.3325 61.7039 14.3757 61.7039 14.4199C61.7039 15.0901 61.4232 15.5805 61.0933 15.8899C60.9206 16.0626 60.7098 16.2024 60.4744 16.297C60.3829 16.334 60.2873 16.3638 60.1887 16.3854L60.0797 16.407L59.9779 16.4193C59.9142 16.4265 59.8494 16.4296 59.7836 16.4296C59.5215 16.4296 59.2707 16.3833 59.0414 16.3011C58.7475 16.1952 58.4905 16.0287 58.2931 15.82C58.0731 15.5702 57.774 15.12 57.774 14.4199ZM68.1132 10.5301V14.9904L71.4335 10.5301H73.7742V18.3303H71.2536V13.8001L67.9333 18.3303H65.5937V10.5301H68.1132ZM72.8542 7.38044C72.6434 8.00955 72.224 8.55026 71.7337 8.86995C71.0737 9.30992 70.2637 9.36029 69.6839 9.36029C69.1042 9.36029 68.3034 9.30992 67.6342 8.86995C67.5766 8.83295 67.5201 8.79389 67.4646 8.75071C67.4019 8.7024 67.3402 8.64997 67.2806 8.59343C67.2168 8.53278 67.1551 8.46905 67.0955 8.4012C66.8457 8.11338 66.6412 7.76181 66.5137 7.38044L68.2633 6.69993C68.3332 7.04944 68.5038 7.33007 68.7135 7.49968C68.9438 7.68986 69.2337 7.81013 69.6736 7.81013C69.7816 7.81013 69.8803 7.80293 69.9717 7.78957L70.0242 7.78134L70.0756 7.77107L70.1444 7.75359L70.2133 7.73303C70.3778 7.67855 70.5135 7.59837 70.6338 7.49968C70.8435 7.33007 71.0141 7.04944 71.084 6.69993L72.8542 7.38044ZM79.3437 18.4505V22.2201H81.8838V18.4505H81.9835C83.7536 18.4505 84.7333 17.7197 85.1835 17.2797C85.4148 17.0525 85.6451 16.7626 85.8363 16.4018C85.8692 16.3401 85.901 16.2764 85.9308 16.2106L85.9843 16.0893C86.0511 15.9279 86.1097 15.7552 86.158 15.5692C86.2176 15.342 86.2608 15.0963 86.2845 14.8301C86.2906 14.755 86.2958 14.679 86.2989 14.6008C86.3019 14.5309 86.303 14.461 86.303 14.3901C86.303 13.8843 86.2269 13.4392 86.1025 13.0507C85.9925 12.7053 85.8435 12.4051 85.6739 12.1471C85.6338 12.0854 85.5916 12.0258 85.5484 11.9682L85.5114 11.9199L85.4477 11.8408C85.2884 11.6465 85.1198 11.483 84.9532 11.3504C84.1833 10.7398 83.0238 10.4098 81.9938 10.4098H81.8735V6.67012H79.354V10.4098H79.2337C78.1934 10.4098 77.0431 10.7398 76.2731 11.3504C75.6235 11.8706 74.9234 12.8502 74.9234 14.3901C74.9234 15.8097 75.4837 16.74 76.0439 17.2797C76.4931 17.7197 77.4738 18.4505 79.2429 18.4505H79.3437ZM78.8328 12.4935C79.0384 12.4483 79.2532 12.4298 79.4639 12.4401V16.4203C78.8235 16.4399 78.2232 16.2003 77.8932 15.8303C77.593 15.5198 77.3833 15.01 77.3833 14.4004C77.3833 13.7805 77.593 13.2799 77.8932 12.9797C78.1245 12.7423 78.4637 12.5747 78.8328 12.4935ZM83.3137 15.8406C82.9837 16.2003 82.3936 16.4501 81.744 16.4306V12.4503C82.149 12.4226 82.5643 12.513 82.9045 12.6929C83.0587 12.7752 83.1985 12.8749 83.3137 12.99C83.4504 13.1267 83.5686 13.3066 83.657 13.5194C83.7618 13.7754 83.8235 14.0776 83.8235 14.4096C83.8235 15.0202 83.6138 15.5301 83.3137 15.8406ZM91.4643 22.2201V18.4505H91.3636C90.7941 18.4505 90.3069 18.3745 89.8916 18.2573C89.6644 18.1936 89.4598 18.1165 89.2758 18.0332C88.7495 17.7947 88.3897 17.5007 88.1646 17.2797C88.0875 17.2057 88.0104 17.1245 87.9354 17.035C87.8696 16.9579 87.8048 16.8747 87.7431 16.7863C87.5982 16.5786 87.4635 16.3391 87.3525 16.0657C87.2281 15.7604 87.1336 15.4129 87.0832 15.0202C87.0678 14.902 87.0565 14.7787 87.0503 14.6522C87.0462 14.5669 87.0441 14.4795 87.0441 14.3901C87.0441 12.8502 87.7442 11.8706 88.3938 11.3504C89.1638 10.7398 90.3141 10.4098 91.3544 10.4098H91.4746V6.67012H93.9942V10.4098H94.1144C94.4341 10.4098 94.7662 10.4417 95.0951 10.5034C95.2616 10.5342 95.4271 10.5733 95.5906 10.6206C95.7345 10.6617 95.8753 10.709 96.0131 10.7614C96.4058 10.9125 96.7697 11.1099 97.0739 11.3504C97.7246 11.8706 98.4236 12.8502 98.4236 14.3901C98.4236 14.9555 98.3352 15.4407 98.1934 15.856C98.0659 16.2281 97.8953 16.5437 97.7072 16.8079C97.5776 16.9888 97.4409 17.145 97.3042 17.2797C97.0164 17.5614 96.5106 17.9623 95.7191 18.2141C95.5083 18.2809 95.2771 18.3375 95.0252 18.3786C94.7456 18.4248 94.4393 18.4505 94.1041 18.4505H94.0044V22.2201H91.4643ZM91.5846 12.4401C90.9946 12.4103 90.3737 12.6097 90.0139 12.9797C89.7137 13.2799 89.504 13.7805 89.504 14.4004C89.504 15.01 89.7137 15.5198 90.0139 15.8303C90.3439 16.2003 90.9442 16.4399 91.5846 16.4203V12.4401ZM93.8636 16.4306C94.5143 16.4501 95.1044 16.2003 95.4343 15.8406C95.5937 15.6761 95.7273 15.4551 95.8178 15.1929C95.8979 14.9606 95.9442 14.6964 95.9442 14.4096C95.9442 13.8001 95.7345 13.2902 95.4343 12.99C95.0643 12.62 94.4537 12.4103 93.8636 12.4503V16.4306ZM108.043 10.5301H105.524V11.41C104.803 10.4304 103.733 10.27 103.073 10.27C101.994 10.27 101.044 10.6596 100.363 11.3401C99.6438 12.0597 99.1535 13.1802 99.1535 14.4898C99.1535 15.1457 99.283 15.7974 99.5883 16.409C99.7631 16.7585 99.9954 17.0936 100.294 17.4103C101.154 18.32 102.093 18.5996 103.214 18.5996C103.864 18.5996 104.843 18.4403 105.524 17.3897V18.3303H108.043V10.5301ZM101.744 14.4199C101.744 14.0951 101.813 13.8227 101.913 13.5975C102.028 13.3364 102.184 13.1401 102.324 13.0003C102.654 12.6703 103.164 12.4401 103.694 12.4503C104.153 12.4503 104.714 12.62 105.093 12.99C105.463 13.3395 105.674 13.8597 105.674 14.4199C105.674 15.0901 105.393 15.5805 105.063 15.8899C104.733 16.2199 104.263 16.4296 103.754 16.4296C103.153 16.4296 102.614 16.1901 102.263 15.82C102.157 15.6997 102.033 15.5322 101.932 15.3132C101.824 15.0778 101.744 14.7818 101.744 14.4199ZM112.083 10.5301V14.9904L115.403 10.5301H117.744V18.3303H115.224V13.8001L111.903 18.3303H109.564V10.5301H112.083ZM116.824 7.38044C116.726 7.67238 116.584 7.94479 116.41 8.18533C116.289 8.35392 116.152 8.50606 116.004 8.63866C115.908 8.72501 115.807 8.80211 115.704 8.86995C115.536 8.98097 115.359 9.06732 115.178 9.13517C114.971 9.21227 114.759 9.26366 114.551 9.29759C114.229 9.35001 113.917 9.36029 113.654 9.36029C113.074 9.36029 112.273 9.30992 111.604 8.86995C111.114 8.55951 110.693 8.00955 110.484 7.38044L112.233 6.69993C112.303 7.04944 112.474 7.33007 112.684 7.49968C112.799 7.59426 112.928 7.67135 113.084 7.72481C113.241 7.77929 113.424 7.81013 113.644 7.81013C114.084 7.81013 114.373 7.68986 114.604 7.49968C114.711 7.41333 114.807 7.2982 114.886 7.15943C114.961 7.02579 115.02 6.8716 115.054 6.69993L116.824 7.38044ZM120.304 10.5496C119.883 10.71 119.344 10.9896 119.014 11.2003L119.993 12.8903C120.244 12.6796 120.504 12.5202 120.834 12.3804C121.164 12.2396 121.463 12.1697 121.864 12.1697C122.284 12.1697 122.533 12.2602 122.654 12.3105C122.835 12.3917 122.934 12.5038 122.986 12.6107C123.022 12.6878 123.034 12.7618 123.034 12.8204C123.034 12.9705 122.964 13.1997 122.664 13.3395C122.583 13.3776 122.475 13.4053 122.359 13.4259C122.133 13.467 121.876 13.4804 121.723 13.4804H121.004V15.1899H121.943C122.224 15.1899 122.643 15.2402 122.854 15.3297C122.953 15.3728 123.035 15.4273 123.097 15.4962C123.178 15.5866 123.224 15.7018 123.224 15.8498C123.224 15.9639 123.202 16.113 123.098 16.2497C123.045 16.3175 122.973 16.3833 122.874 16.4399C122.624 16.5797 122.244 16.63 121.964 16.63C121.699 16.63 121.409 16.5879 121.148 16.5211C121.005 16.4841 120.871 16.4399 120.754 16.3905C120.444 16.2497 120.074 15.9999 119.794 15.7604L118.724 17.4205C118.822 17.4997 118.985 17.6272 119.201 17.767C119.302 17.8317 119.413 17.8996 119.534 17.9664C119.711 18.063 119.909 18.1576 120.124 18.2398C120.824 18.4999 121.554 18.5903 122.254 18.5903C123.554 18.5903 124.464 18.4002 125.124 17.7505C125.383 17.4904 125.555 17.2129 125.66 16.9322C125.762 16.6609 125.803 16.3854 125.803 16.1202C125.803 16.0513 125.801 15.9834 125.795 15.9177C125.791 15.8755 125.787 15.8334 125.781 15.7922L125.766 15.7059C125.703 15.3811 125.554 15.0932 125.284 14.8301C125.174 14.7201 124.813 14.4096 124.234 14.2698C124.293 14.2482 124.352 14.2215 124.409 14.1917C124.458 14.167 124.504 14.1393 124.55 14.1095L124.61 14.0694C124.651 14.0406 124.691 14.0098 124.73 13.9779C124.788 13.9316 124.842 13.8813 124.894 13.8299C125.274 13.43 125.363 12.99 125.363 12.4997C125.363 12.3506 125.352 12.2036 125.325 12.0607C125.311 11.9826 125.291 11.9055 125.267 11.8295C125.18 11.5591 125.028 11.3042 124.784 11.0698C123.994 10.2998 122.564 10.27 122.144 10.27C121.544 10.27 120.894 10.3399 120.304 10.5496ZM134.923 14.8702H129.103C129.103 15.0151 129.123 15.1775 129.161 15.342C129.233 15.6524 129.371 15.9711 129.574 16.1993C129.674 16.3103 129.785 16.3977 129.901 16.4645C129.982 16.5118 130.066 16.5498 130.151 16.5797C130.4 16.6691 130.654 16.6897 130.863 16.6897C131.003 16.6897 131.144 16.6794 131.279 16.6588C131.502 16.6239 131.711 16.5591 131.873 16.4594C131.903 16.4399 132.203 16.2497 132.413 15.8097L134.794 16.0503C134.443 17.1502 133.743 17.7299 133.293 18.0096C132.544 18.4598 131.704 18.5893 130.824 18.5893C129.653 18.5893 128.623 18.3796 127.713 17.4699C127.034 16.7894 126.544 15.7593 126.544 14.46C126.544 13.3395 126.943 12.1903 127.734 11.3802C128.202 10.9115 128.73 10.6319 129.249 10.4695C129.772 10.305 130.286 10.2598 130.723 10.2598C131.594 10.2598 132.853 10.4201 133.824 11.4296C134.754 12.4103 134.923 13.6294 134.923 14.5998V14.8702ZM132.603 13.3693C132.584 13.2994 132.464 12.8101 132.093 12.4596C131.991 12.364 131.871 12.2797 131.737 12.2108C131.649 12.1656 131.556 12.1276 131.455 12.0978C131.289 12.0474 131.105 12.0196 130.903 12.0196C130.686 12.0196 130.5 12.0484 130.339 12.0957C130.015 12.1913 129.79 12.363 129.623 12.5295C129.433 12.7402 129.253 13.0198 129.183 13.3693H132.603ZM138.583 10.5301H136.063V18.3303H138.583V15.27H141.404V18.3303H143.923V10.5301H141.404V13.2398H138.583V10.5301Z" fill="#2B2D34"/>
</svg>
