<svg width="108" height="27" viewBox="0 0 108 27" fill="none" xmlns="http://www.w3.org/2000/svg">
<path d="M3.21431 9.11932C2.60067 9.11932 2.05522 9.0142 1.57795 8.80398C1.10352 8.59375 0.728516 8.30114 0.452947 7.92614C0.177379 7.55114 0.0310725 7.1179 0.014027 6.62642H1.6163C1.6305 6.86222 1.70863 7.06818 1.85067 7.24432C1.99272 7.41761 2.18164 7.55256 2.41744 7.64915C2.65323 7.74574 2.91744 7.79403 3.21005 7.79403C3.52255 7.79403 3.79954 7.74006 4.04102 7.6321C4.28249 7.52131 4.47141 7.3679 4.60778 7.17188C4.74414 6.97585 4.8109 6.75 4.80806 6.49432C4.8109 6.23011 4.74272 5.99716 4.60352 5.79545C4.46431 5.59375 4.26261 5.43608 3.9984 5.32244C3.73704 5.20881 3.4217 5.15199 3.05238 5.15199H2.28107V3.93324H3.05238C3.35636 3.93324 3.62198 3.88068 3.84925 3.77557C4.07937 3.67045 4.25977 3.52273 4.39045 3.33239C4.52113 3.1392 4.58505 2.91619 4.58221 2.66335C4.58505 2.41619 4.52965 2.2017 4.41602 2.01989C4.30522 1.83523 4.14755 1.69176 3.943 1.58949C3.7413 1.48722 3.50408 1.43608 3.23136 1.43608C2.96431 1.43608 2.71715 1.48437 2.48988 1.58097C2.26261 1.67756 2.07937 1.81534 1.94016 1.99432C1.80096 2.17045 1.7271 2.38068 1.71857 2.625H0.197266C0.208629 2.13636 0.349254 1.70739 0.619141 1.33807C0.891868 0.965909 1.2555 0.676136 1.71005 0.46875C2.1646 0.258523 2.67454 0.153409 3.23988 0.153409C3.82227 0.153409 4.32795 0.262784 4.75692 0.481534C5.18874 0.697443 5.52255 0.988636 5.75835 1.35511C5.99414 1.72159 6.11204 2.12642 6.11204 2.5696C6.11488 3.06108 5.96999 3.47301 5.67738 3.8054C5.38761 4.13778 5.00692 4.35511 4.53533 4.45739V4.52557C5.14897 4.6108 5.61914 4.83807 5.94585 5.20739C6.27539 5.57386 6.43874 6.02983 6.4359 6.57528C6.4359 7.06392 6.2967 7.50142 6.01829 7.88778C5.74272 8.27131 5.36204 8.57244 4.87624 8.79119C4.39329 9.00994 3.83931 9.11932 3.21431 9.11932ZM9.79918 9.1321C9.38441 9.1321 9.01083 9.05824 8.67844 8.91051C8.3489 8.75994 8.08754 8.53835 7.89435 8.24574C7.70401 7.95312 7.60884 7.59233 7.60884 7.16335C7.60884 6.79403 7.67702 6.48864 7.81339 6.24716C7.94975 6.00568 8.13583 5.8125 8.37163 5.66761C8.60742 5.52273 8.87305 5.41335 9.1685 5.33949C9.4668 5.26278 9.77504 5.20739 10.0932 5.1733C10.4767 5.13352 10.7878 5.09801 11.0265 5.06676C11.2651 5.03267 11.4384 4.98153 11.5463 4.91335C11.6571 4.84233 11.7125 4.73295 11.7125 4.58523V4.55966C11.7125 4.23864 11.6174 3.99006 11.427 3.81392C11.2367 3.63778 10.9625 3.54972 10.6046 3.54972C10.2267 3.54972 9.92702 3.6321 9.70543 3.79688C9.48668 3.96165 9.33896 4.15625 9.26225 4.38068L7.82191 4.17614C7.93555 3.77841 8.12305 3.44602 8.38441 3.17898C8.64577 2.90909 8.96538 2.70739 9.34322 2.57386C9.72106 2.4375 10.1387 2.36932 10.5961 2.36932C10.9114 2.36932 11.2253 2.40625 11.5378 2.48011C11.8503 2.55398 12.1358 2.67614 12.3944 2.84659C12.6529 3.0142 12.8603 3.2429 13.0165 3.53267C13.1756 3.82244 13.2551 4.18466 13.2551 4.61932V9H11.7722V8.10085H11.7211C11.6273 8.28267 11.4952 8.45312 11.3248 8.61222C11.1571 8.76847 10.9455 8.89489 10.6898 8.99148C10.437 9.08523 10.1401 9.1321 9.79918 9.1321ZM10.1998 7.99858C10.5094 7.99858 10.7779 7.9375 11.0051 7.81534C11.2324 7.69034 11.4071 7.52557 11.5293 7.32102C11.6543 7.11648 11.7168 6.89347 11.7168 6.65199V5.88068C11.6685 5.92045 11.5861 5.95739 11.4696 5.99148C11.356 6.02557 11.2282 6.0554 11.0861 6.08097C10.9441 6.10653 10.8034 6.12926 10.6642 6.14915C10.525 6.16903 10.4043 6.18608 10.302 6.20028C10.0719 6.23153 9.86594 6.28267 9.68413 6.35369C9.50231 6.42472 9.35884 6.52415 9.25373 6.65199C9.14862 6.77699 9.09606 6.93892 9.09606 7.13778C9.09606 7.42188 9.19975 7.63636 9.40714 7.78125C9.61452 7.92614 9.87873 7.99858 10.1998 7.99858ZM14.2267 10.9006V7.73011H14.7466C14.8858 7.62216 15.0023 7.47585 15.0961 7.29119C15.1898 7.10369 15.2665 6.88352 15.3262 6.63068C15.3887 6.375 15.4398 6.08949 15.4796 5.77415C15.5194 5.45597 15.5549 5.11364 15.5861 4.74716L15.7736 2.45455H20.5037V7.73011H21.5179V10.9006H20.0265V9H15.7438V10.9006H14.2267ZM16.3319 7.73011H19.0293V3.69886H17.1117L17.0094 4.74716C16.9526 5.44034 16.8773 6.03409 16.7836 6.52841C16.6898 7.02273 16.5392 7.4233 16.3319 7.73011ZM25.5247 9.12784C24.8855 9.12784 24.3315 8.98722 23.8627 8.70597C23.394 8.42472 23.0304 8.03125 22.7718 7.52557C22.5162 7.01989 22.3883 6.42898 22.3883 5.75284C22.3883 5.0767 22.5162 4.48437 22.7718 3.97585C23.0304 3.46733 23.394 3.07244 23.8627 2.79119C24.3315 2.50994 24.8855 2.36932 25.5247 2.36932C26.1639 2.36932 26.7179 2.50994 27.1866 2.79119C27.6554 3.07244 28.0176 3.46733 28.2733 3.97585C28.5318 4.48437 28.661 5.0767 28.661 5.75284C28.661 6.42898 28.5318 7.01989 28.2733 7.52557C28.0176 8.03125 27.6554 8.42472 27.1866 8.70597C26.7179 8.98722 26.1639 9.12784 25.5247 9.12784ZM25.5332 7.89205C25.8798 7.89205 26.1696 7.79687 26.4025 7.60653C26.6355 7.41335 26.8088 7.15483 26.9224 6.83097C27.0389 6.5071 27.0971 6.14631 27.0971 5.74858C27.0971 5.34801 27.0389 4.9858 26.9224 4.66193C26.8088 4.33523 26.6355 4.07528 26.4025 3.8821C26.1696 3.68892 25.8798 3.59233 25.5332 3.59233C25.1781 3.59233 24.8826 3.68892 24.6468 3.8821C24.4139 4.07528 24.2392 4.33523 24.1227 4.66193C24.0091 4.9858 23.9522 5.34801 23.9522 5.74858C23.9522 6.14631 24.0091 6.5071 24.1227 6.83097C24.2392 7.15483 24.4139 7.41335 24.6468 7.60653C24.8826 7.79687 25.1781 7.89205 25.5332 7.89205ZM34.4661 5.08807V6.35369H30.9803V5.08807H34.4661ZM31.4576 2.45455V9H29.9703V2.45455H31.4576ZM35.476 2.45455V9H33.9931V2.45455H35.476ZM38.9203 9.1321C38.5055 9.1321 38.1319 9.05824 37.7995 8.91051C37.47 8.75994 37.2086 8.53835 37.0154 8.24574C36.8251 7.95312 36.7299 7.59233 36.7299 7.16335C36.7299 6.79403 36.7981 6.48864 36.9345 6.24716C37.0708 6.00568 37.2569 5.8125 37.4927 5.66761C37.7285 5.52273 37.9941 5.41335 38.2896 5.33949C38.5879 5.26278 38.8961 5.20739 39.2143 5.1733C39.5978 5.13352 39.9089 5.09801 40.1475 5.06676C40.3862 5.03267 40.5595 4.98153 40.6674 4.91335C40.7782 4.84233 40.8336 4.73295 40.8336 4.58523V4.55966C40.8336 4.23864 40.7385 3.99006 40.5481 3.81392C40.3578 3.63778 40.0836 3.54972 39.7257 3.54972C39.3478 3.54972 39.0481 3.6321 38.8265 3.79688C38.6078 3.96165 38.46 4.15625 38.3833 4.38068L36.943 4.17614C37.0566 3.77841 37.2441 3.44602 37.5055 3.17898C37.7669 2.90909 38.0865 2.70739 38.4643 2.57386C38.8422 2.4375 39.2598 2.36932 39.7172 2.36932C40.0325 2.36932 40.3464 2.40625 40.6589 2.48011C40.9714 2.55398 41.2569 2.67614 41.5154 2.84659C41.774 3.0142 41.9814 3.2429 42.1376 3.53267C42.2967 3.82244 42.3762 4.18466 42.3762 4.61932V9H40.8933V8.10085H40.8422C40.7484 8.28267 40.6163 8.45312 40.4458 8.61222C40.2782 8.76847 40.0666 8.89489 39.8109 8.99148C39.5581 9.08523 39.2612 9.1321 38.9203 9.1321ZM39.3208 7.99858C39.6305 7.99858 39.899 7.9375 40.1262 7.81534C40.3535 7.69034 40.5282 7.52557 40.6504 7.32102C40.7754 7.11648 40.8379 6.89347 40.8379 6.65199V5.88068C40.7896 5.92045 40.7072 5.95739 40.5907 5.99148C40.4771 6.02557 40.3493 6.0554 40.2072 6.08097C40.0652 6.10653 39.9245 6.12926 39.7853 6.14915C39.6461 6.16903 39.5254 6.18608 39.4231 6.20028C39.193 6.23153 38.987 6.28267 38.8052 6.35369C38.6234 6.42472 38.4799 6.52415 38.3748 6.65199C38.2697 6.77699 38.2172 6.93892 38.2172 7.13778C38.2172 7.42188 38.3208 7.63636 38.5282 7.78125C38.7356 7.92614 38.9998 7.99858 39.3208 7.99858ZM43.1944 3.72017V2.45455H48.9217V3.72017H46.8038V9H45.3123V3.72017H43.1944ZM51.6373 6.91193L54.258 2.45455H55.8432V9H54.3517V4.53835L51.7395 9H50.15V2.45455H51.6373V6.91193ZM56.6944 3.72017V2.45455H62.4217V3.72017H60.3038V9H58.8123V3.72017H56.6944ZM64.6941 4.58523H66.6245C67.4597 4.58523 68.106 4.78835 68.5634 5.1946C69.0208 5.60085 69.2509 6.13352 69.2537 6.79261C69.2509 7.22159 69.1458 7.60227 68.9384 7.93466C68.7338 8.26705 68.4355 8.52841 68.0435 8.71875C67.6543 8.90625 67.1813 9 66.6245 9H63.65V2.45455H65.1373V7.73438H66.6245C66.9597 7.73438 67.2353 7.64915 67.4512 7.47869C67.6671 7.3054 67.775 7.08381 67.775 6.81392C67.775 6.52983 67.6671 6.2983 67.4512 6.11932C67.2353 5.94034 66.9597 5.85085 66.6245 5.85085H64.6941V4.58523ZM79.0197 2.45455V9H77.5368V2.45455H79.0197ZM78.3251 5.41193V6.6733C78.1575 6.74716 77.9672 6.81392 77.7541 6.87358C77.5439 6.9304 77.3208 6.97585 77.085 7.00994C76.8521 7.04403 76.6191 7.06108 76.3862 7.06108C75.5112 7.06108 74.8194 6.86506 74.3109 6.47301C73.8052 6.07812 73.5524 5.46307 73.5524 4.62784V2.44602H75.0268V4.62784C75.0268 4.90909 75.0765 5.13494 75.176 5.3054C75.2754 5.47585 75.426 5.60085 75.6277 5.6804C75.8294 5.7571 76.0822 5.79545 76.3862 5.79545C76.7271 5.79545 77.051 5.76136 77.3578 5.69318C77.6646 5.625 77.987 5.53125 78.3251 5.41193ZM83.4696 9.12784C82.8134 9.12784 82.2466 8.99148 81.7694 8.71875C81.2949 8.44318 80.9299 8.05398 80.6742 7.55114C80.4185 7.04545 80.2907 6.45028 80.2907 5.76562C80.2907 5.09233 80.4185 4.50142 80.6742 3.9929C80.9327 3.48153 81.2935 3.08381 81.7566 2.79972C82.2196 2.51278 82.7637 2.36932 83.3887 2.36932C83.7921 2.36932 84.1728 2.43466 84.5307 2.56534C84.8915 2.69318 85.2097 2.89205 85.4853 3.16193C85.7637 3.43182 85.9824 3.77557 86.1415 4.19318C86.3006 4.60795 86.3801 5.10227 86.3801 5.67614V6.14915H81.0151V5.10938H84.9015C84.8986 4.81392 84.8347 4.55114 84.7097 4.32102C84.5847 4.08807 84.41 3.90483 84.1855 3.77131C83.964 3.63778 83.7054 3.57102 83.41 3.57102C83.0946 3.57102 82.8176 3.64773 82.579 3.80114C82.3404 3.9517 82.1543 4.15057 82.0208 4.39773C81.8901 4.64205 81.8233 4.91051 81.8205 5.20312V6.1108C81.8205 6.49148 81.8901 6.81818 82.0293 7.09091C82.1685 7.3608 82.3631 7.56818 82.6131 7.71307C82.8631 7.85511 83.1557 7.92614 83.4909 7.92614C83.7154 7.92614 83.9185 7.89489 84.1003 7.83239C84.2821 7.76705 84.4398 7.67188 84.5733 7.54688C84.7069 7.42188 84.8077 7.26705 84.8759 7.08239L86.3162 7.24432C86.2253 7.625 86.052 7.95739 85.7963 8.24148C85.5435 8.52273 85.2196 8.74148 84.8248 8.89773C84.4299 9.05114 83.9782 9.12784 83.4696 9.12784ZM87.6852 11.4545V2.45455H89.2022V3.53693H89.2917C89.3713 3.37784 89.4835 3.20881 89.6284 3.02983C89.7733 2.84801 89.9693 2.69318 90.2164 2.56534C90.4636 2.43466 90.7789 2.36932 91.1625 2.36932C91.6681 2.36932 92.1241 2.49858 92.5304 2.7571C92.9395 3.01278 93.2633 3.39205 93.502 3.89489C93.7434 4.39489 93.8642 5.00852 93.8642 5.7358C93.8642 6.45455 93.7463 7.06534 93.5105 7.56818C93.2747 8.07102 92.9537 8.45455 92.5474 8.71875C92.1412 8.98295 91.6809 9.11506 91.1667 9.11506C90.7917 9.11506 90.4806 9.05256 90.2335 8.92756C89.9863 8.80256 89.7875 8.65199 89.6369 8.47585C89.4892 8.29687 89.3741 8.12784 89.2917 7.96875H89.2278V11.4545H87.6852ZM89.198 5.72727C89.198 6.15057 89.2576 6.52131 89.377 6.83949C89.4991 7.15767 89.6738 7.40625 89.9011 7.58523C90.1312 7.76136 90.4096 7.84943 90.7363 7.84943C91.0772 7.84943 91.3627 7.75852 91.5929 7.5767C91.823 7.39205 91.9963 7.14062 92.1127 6.82244C92.2321 6.50142 92.2917 6.13636 92.2917 5.72727C92.2917 5.32102 92.2335 4.96023 92.117 4.64489C92.0005 4.32955 91.8272 4.08239 91.5971 3.90341C91.367 3.72443 91.0801 3.63494 90.7363 3.63494C90.4068 3.63494 90.127 3.72159 89.8968 3.89489C89.6667 4.06818 89.492 4.31108 89.3727 4.62358C89.2562 4.93608 89.198 5.30398 89.198 5.72727ZM98.0829 9.12784C97.4267 9.12784 96.8599 8.99148 96.3826 8.71875C95.9082 8.44318 95.5431 8.05398 95.2875 7.55114C95.0318 7.04545 94.9039 6.45028 94.9039 5.76562C94.9039 5.09233 95.0318 4.50142 95.2875 3.9929C95.546 3.48153 95.9068 3.08381 96.3699 2.79972C96.8329 2.51278 97.377 2.36932 98.002 2.36932C98.4054 2.36932 98.786 2.43466 99.144 2.56534C99.5048 2.69318 99.823 2.89205 100.099 3.16193C100.377 3.43182 100.596 3.77557 100.755 4.19318C100.914 4.60795 100.993 5.10227 100.993 5.67614V6.14915H95.6284V5.10938H99.5147C99.5119 4.81392 99.448 4.55114 99.323 4.32102C99.198 4.08807 99.0233 3.90483 98.7988 3.77131C98.5772 3.63778 98.3187 3.57102 98.0233 3.57102C97.7079 3.57102 97.4309 3.64773 97.1923 3.80114C96.9537 3.9517 96.7676 4.15057 96.6341 4.39773C96.5034 4.64205 96.4366 4.91051 96.4338 5.20312V6.1108C96.4338 6.49148 96.5034 6.81818 96.6426 7.09091C96.7818 7.3608 96.9764 7.56818 97.2264 7.71307C97.4764 7.85511 97.769 7.92614 98.1042 7.92614C98.3287 7.92614 98.5318 7.89489 98.7136 7.83239C98.8954 7.76705 99.0531 7.67188 99.1866 7.54688C99.3201 7.42188 99.421 7.26705 99.4892 7.08239L100.93 7.24432C100.839 7.625 100.665 7.95739 100.41 8.24148C100.157 8.52273 99.8329 8.74148 99.438 8.89773C99.0431 9.05114 98.5914 9.12784 98.0829 9.12784ZM101.936 7.20597H103.466C103.48 7.45028 103.59 7.6392 103.794 7.77273C103.999 7.90625 104.264 7.97301 104.591 7.97301C104.923 7.97301 105.203 7.90057 105.431 7.75568C105.661 7.60795 105.776 7.38494 105.776 7.08665C105.776 6.91051 105.732 6.75568 105.644 6.62216C105.556 6.4858 105.432 6.38068 105.273 6.30682C105.114 6.23295 104.926 6.19602 104.71 6.19602H103.709V5.10085H104.71C105.031 5.10085 105.274 5.02699 105.439 4.87926C105.607 4.73153 105.691 4.54545 105.691 4.32102C105.691 4.07955 105.602 3.88352 105.426 3.73295C105.253 3.58239 105.013 3.5071 104.706 3.5071C104.399 3.5071 104.144 3.5767 103.939 3.71591C103.737 3.85511 103.632 4.03409 103.624 4.25284H102.102C102.108 3.87216 102.222 3.54119 102.443 3.25994C102.668 2.97869 102.969 2.75994 103.347 2.60369C103.727 2.44744 104.156 2.36932 104.634 2.36932C105.145 2.36932 105.587 2.44602 105.959 2.59943C106.331 2.75284 106.618 2.96733 106.82 3.2429C107.021 3.51562 107.122 3.83665 107.122 4.20597C107.122 4.56108 107.012 4.85511 106.79 5.08807C106.568 5.31818 106.27 5.48295 105.895 5.58239V5.65057C106.154 5.66477 106.387 5.73864 106.594 5.87216C106.801 6.00284 106.966 6.1804 107.088 6.40483C107.21 6.62926 107.271 6.8892 107.271 7.18466C107.271 7.58523 107.156 7.93182 106.926 8.22443C106.696 8.5142 106.379 8.73722 105.976 8.89347C105.575 9.04972 105.117 9.12784 104.6 9.12784C104.097 9.12784 103.646 9.05256 103.249 8.90199C102.854 8.74858 102.54 8.52841 102.307 8.24148C102.074 7.95455 101.95 7.60937 101.936 7.20597ZM26.9128 16.598V15.2727H33.8759V16.598H31.1784V24H29.6103V16.598H26.9128ZM37.0985 24.1278C36.4423 24.1278 35.8755 23.9915 35.3983 23.7188C34.9238 23.4432 34.5588 23.054 34.3031 22.5511C34.0474 22.0455 33.9196 21.4503 33.9196 20.7656C33.9196 20.0923 34.0474 19.5014 34.3031 18.9929C34.5616 18.4815 34.9224 18.0838 35.3855 17.7997C35.8485 17.5128 36.3926 17.3693 37.0176 17.3693C37.421 17.3693 37.8017 17.4347 38.1596 17.5653C38.5204 17.6932 38.8386 17.892 39.1142 18.1619C39.3926 18.4318 39.6113 18.7756 39.7704 19.1932C39.9295 19.608 40.0091 20.1023 40.0091 20.6761V21.1491H34.644V20.1094H38.5304C38.5275 19.8139 38.4636 19.5511 38.3386 19.321C38.2136 19.0881 38.0389 18.9048 37.8145 18.7713C37.5929 18.6378 37.3343 18.571 37.0389 18.571C36.7235 18.571 36.4466 18.6477 36.2079 18.8011C35.9693 18.9517 35.7832 19.1506 35.6497 19.3977C35.519 19.642 35.4522 19.9105 35.4494 20.2031V21.1108C35.4494 21.4915 35.519 21.8182 35.6582 22.0909C35.7974 22.3608 35.992 22.5682 36.242 22.7131C36.492 22.8551 36.7846 22.9261 37.1199 22.9261C37.3443 22.9261 37.5474 22.8949 37.7292 22.8324C37.911 22.767 38.0687 22.6719 38.2022 22.5469C38.3358 22.4219 38.4366 22.267 38.5048 22.0824L39.9451 22.2443C39.8542 22.625 39.6809 22.9574 39.4252 23.2415C39.1724 23.5227 38.8485 23.7415 38.4537 23.8977C38.0588 24.0511 37.6071 24.1278 37.0985 24.1278ZM42.8567 15.2727V24H41.3141V15.2727H42.8567ZM47.3407 24.1278C46.6845 24.1278 46.1177 23.9915 45.6404 23.7188C45.166 23.4432 44.801 23.054 44.5453 22.5511C44.2896 22.0455 44.1618 21.4503 44.1618 20.7656C44.1618 20.0923 44.2896 19.5014 44.5453 18.9929C44.8038 18.4815 45.1646 18.0838 45.6277 17.7997C46.0907 17.5128 46.6348 17.3693 47.2598 17.3693C47.6632 17.3693 48.0439 17.4347 48.4018 17.5653C48.7626 17.6932 49.0808 17.892 49.3564 18.1619C49.6348 18.4318 49.8535 18.7756 50.0126 19.1932C50.1717 19.608 50.2512 20.1023 50.2512 20.6761V21.1491H44.8862V20.1094H48.7725C48.7697 19.8139 48.7058 19.5511 48.5808 19.321C48.4558 19.0881 48.2811 18.9048 48.0566 18.7713C47.835 18.6378 47.5765 18.571 47.2811 18.571C46.9657 18.571 46.6887 18.6477 46.4501 18.8011C46.2115 18.9517 46.0254 19.1506 45.8919 19.3977C45.7612 19.642 45.6944 19.9105 45.6916 20.2031V21.1108C45.6916 21.4915 45.7612 21.8182 45.9004 22.0909C46.0396 22.3608 46.2342 22.5682 46.4842 22.7131C46.7342 22.8551 47.0268 22.9261 47.362 22.9261C47.5865 22.9261 47.7896 22.8949 47.9714 22.8324C48.1532 22.767 48.3109 22.6719 48.4444 22.5469C48.5779 22.4219 48.6788 22.267 48.747 22.0824L50.1873 22.2443C50.0964 22.625 49.9231 22.9574 49.6674 23.2415C49.4146 23.5227 49.0907 23.7415 48.6958 23.8977C48.301 24.0511 47.8493 24.1278 47.3407 24.1278ZM54.4029 26.5909C53.8489 26.5909 53.373 26.5156 52.9753 26.3651C52.5776 26.2173 52.258 26.0185 52.0165 25.7685C51.775 25.5185 51.6074 25.2415 51.5137 24.9375L52.9029 24.6009C52.9654 24.7287 53.0563 24.8551 53.1756 24.9801C53.2949 25.108 53.4554 25.2131 53.6571 25.2955C53.8617 25.3807 54.1188 25.4233 54.4284 25.4233C54.8659 25.4233 55.2282 25.3168 55.5151 25.1037C55.802 24.8935 55.9455 24.5469 55.9455 24.0639V22.8239H55.8688C55.7892 22.983 55.6728 23.1463 55.5194 23.3139C55.3688 23.4815 55.1685 23.6222 54.9185 23.7358C54.6713 23.8494 54.3603 23.9062 53.9853 23.9062C53.4824 23.9062 53.0265 23.7884 52.6174 23.5526C52.2111 23.3139 51.8873 22.9588 51.6458 22.4872C51.4071 22.0128 51.2878 21.419 51.2878 20.706C51.2878 19.9872 51.4071 19.3807 51.6458 18.8864C51.8873 18.3892 52.2125 18.0128 52.6216 17.7571C53.0307 17.4986 53.4867 17.3693 53.9895 17.3693C54.373 17.3693 54.6884 17.4347 54.9355 17.5653C55.1855 17.6932 55.3844 17.848 55.5321 18.0298C55.6799 18.2088 55.7921 18.3778 55.8688 18.5369H55.954V17.4545H57.4753V24.1065C57.4753 24.6662 57.3418 25.1293 57.0748 25.4957C56.8077 25.8622 56.4426 26.1364 55.9796 26.3182C55.5165 26.5 54.9909 26.5909 54.4029 26.5909ZM54.4157 22.696C54.7424 22.696 55.0208 22.6165 55.2509 22.4574C55.481 22.2983 55.6557 22.0696 55.775 21.7713C55.8944 21.473 55.954 21.1151 55.954 20.6974C55.954 20.2855 55.8944 19.9247 55.775 19.6151C55.6586 19.3054 55.4853 19.0653 55.2551 18.8949C55.0279 18.7216 54.748 18.6349 54.4157 18.6349C54.0719 18.6349 53.785 18.7244 53.5549 18.9034C53.3248 19.0824 53.1515 19.3281 53.035 19.6406C52.9185 19.9503 52.8603 20.3026 52.8603 20.6974C52.8603 21.098 52.9185 21.4489 53.035 21.75C53.1543 22.0483 53.329 22.2812 53.5591 22.4489C53.7921 22.6136 54.0776 22.696 54.4157 22.696ZM59.0563 24V17.4545H60.552V18.5455H60.6202C60.7395 18.1676 60.9441 17.8764 61.2338 17.6719C61.5265 17.4645 61.8603 17.3608 62.2353 17.3608C62.3205 17.3608 62.4157 17.3651 62.5208 17.3736C62.6287 17.3793 62.7182 17.3892 62.7892 17.4034V18.8224C62.7239 18.7997 62.6202 18.7798 62.4782 18.7628C62.339 18.7429 62.204 18.733 62.0733 18.733C61.7921 18.733 61.5392 18.794 61.3148 18.9162C61.0932 19.0355 60.9185 19.2017 60.7907 19.4148C60.6628 19.6278 60.5989 19.8736 60.5989 20.152V24H59.0563ZM65.5804 24.1321C65.1657 24.1321 64.7921 24.0582 64.4597 23.9105C64.1301 23.7599 63.8688 23.5384 63.6756 23.2457C63.4853 22.9531 63.3901 22.5923 63.3901 22.1634C63.3901 21.794 63.4583 21.4886 63.5946 21.2472C63.731 21.0057 63.9171 20.8125 64.1529 20.6676C64.3887 20.5227 64.6543 20.4134 64.9498 20.3395C65.248 20.2628 65.5563 20.2074 65.8745 20.1733C66.258 20.1335 66.5691 20.098 66.8077 20.0668C67.0463 20.0327 67.2196 19.9815 67.3276 19.9134C67.4384 19.8423 67.4938 19.733 67.4938 19.5852V19.5597C67.4938 19.2386 67.3986 18.9901 67.2083 18.8139C67.0179 18.6378 66.7438 18.5497 66.3858 18.5497C66.008 18.5497 65.7083 18.6321 65.4867 18.7969C65.2679 18.9616 65.1202 19.1562 65.0435 19.3807L63.6032 19.1761C63.7168 18.7784 63.9043 18.446 64.1657 18.179C64.427 17.9091 64.7466 17.7074 65.1245 17.5739C65.5023 17.4375 65.9199 17.3693 66.3773 17.3693C66.6926 17.3693 67.0066 17.4062 67.3191 17.4801C67.6316 17.554 67.9171 17.6761 68.1756 17.8466C68.4341 18.0142 68.6415 18.2429 68.7978 18.5327C68.9569 18.8224 69.0364 19.1847 69.0364 19.6193V24H67.5534V23.1009H67.5023C67.4086 23.2827 67.2765 23.4531 67.106 23.6122C66.9384 23.7685 66.7267 23.8949 66.4711 23.9915C66.2182 24.0852 65.9213 24.1321 65.5804 24.1321ZM65.981 22.9986C66.2907 22.9986 66.5591 22.9375 66.7864 22.8153C67.0137 22.6903 67.1884 22.5256 67.3105 22.321C67.4355 22.1165 67.498 21.8935 67.498 21.652V20.8807C67.4498 20.9205 67.3674 20.9574 67.2509 20.9915C67.1373 21.0256 67.0094 21.0554 66.8674 21.081C66.7253 21.1065 66.5847 21.1293 66.4455 21.1491C66.3063 21.169 66.1855 21.1861 66.0833 21.2003C65.8532 21.2315 65.6472 21.2827 65.4654 21.3537C65.2836 21.4247 65.1401 21.5241 65.035 21.652C64.9299 21.777 64.8773 21.9389 64.8773 22.1378C64.8773 22.4219 64.981 22.6364 65.1884 22.7812C65.3958 22.9261 65.66 22.9986 65.981 22.9986ZM70.5875 24V17.4545H72.062V18.5668H72.1387C72.275 18.1918 72.5009 17.8991 72.8162 17.6889C73.1316 17.4759 73.508 17.3693 73.9455 17.3693C74.3887 17.3693 74.7623 17.4773 75.0662 17.6932C75.373 17.9062 75.589 18.1974 75.714 18.5668H75.7821C75.927 18.2031 76.1713 17.9134 76.5151 17.6974C76.8617 17.4787 77.2722 17.3693 77.7466 17.3693C78.3489 17.3693 78.8404 17.5597 79.2211 17.9403C79.6017 18.321 79.7921 18.8764 79.7921 19.6065V24H78.2452V19.8452C78.2452 19.4389 78.1373 19.142 77.9213 18.9545C77.7054 18.7642 77.4412 18.669 77.1287 18.669C76.7566 18.669 76.4654 18.7855 76.2551 19.0185C76.0478 19.2486 75.9441 19.5483 75.9441 19.9176V24H74.4313V19.7812C74.4313 19.4432 74.329 19.1733 74.1245 18.9716C73.9228 18.7699 73.6586 18.669 73.3319 18.669C73.1103 18.669 72.9086 18.7259 72.7267 18.8395C72.5449 18.9503 72.4 19.108 72.2921 19.3125C72.1841 19.5142 72.1301 19.75 72.1301 20.0199V24H70.5875Z" fill="white"/>
</svg>
