<svg width="160" height="34" viewBox="0 0 160 34" fill="none" xmlns="http://www.w3.org/2000/svg">
<path d="M141.78 17.1044C141.78 12.6624 138.419 9.06941 133.672 9.06941C129.019 9.06941 125.705 12.5244 125.705 17.2714C125.705 22.0424 129.112 25.5214 134.001 25.5214C137.103 25.5214 139.711 24.1344 141.333 21.3134L138.043 19.7854C137.268 21.1954 135.575 22.1124 134.001 22.1124C132.004 22.1124 129.701 20.6084 129.559 18.5174H141.662C141.74 18.0504 141.779 17.5784 141.78 17.1044ZM129.629 15.7464C129.912 13.6314 131.368 12.2454 133.695 12.2454C135.998 12.2454 137.408 13.6034 137.596 15.7464H129.629ZM96.476 9.06641C91.705 9.06641 88.321 12.4984 88.321 17.3404C88.321 22.1344 91.705 25.5194 96.523 25.5194C101.364 25.5194 104.748 22.1344 104.748 17.4114C104.749 12.5454 101.271 9.06641 96.476 9.06641ZM96.524 21.9224C94.126 21.9224 92.646 20.1364 92.646 17.3634C92.646 14.5434 94.15 12.6164 96.524 12.6164C98.921 12.6164 100.425 14.5194 100.425 17.3634C100.425 20.1604 98.944 21.9224 96.524 21.9224ZM79.488 9.07041C77.534 9.07041 76.061 9.73841 74.589 11.3934H74.106C73.117 9.89841 71.503 9.07041 69.693 9.07041C67.859 9.05241 66.128 9.91641 65.041 11.3934H64.558L64.534 11.3704V9.39241H60.489V25.1724H64.859V17.0514C64.859 14.4294 65.963 12.8884 67.873 12.8884C69.644 12.8884 70.794 14.2004 70.794 16.2004V25.1724H75.187V17.0514C75.187 14.4484 76.291 12.8884 78.224 12.8884C79.971 12.8884 81.098 14.2004 81.098 16.2244V25.1724H85.492V15.6944C85.492 11.5784 83.283 9.07041 79.488 9.07041ZM151.499 19.7004H151.187C151.187 19.4194 149.281 14.4224 148.032 11.3264L147.251 9.39041H142.848L149.095 25.2254L146.634 31.2594H151.007L160.001 9.39541H155.595L154.876 11.0514L152.44 17.0794C151.753 18.7634 151.472 19.5444 151.499 19.7004ZM116.87 9.07041C114.914 9.07041 113.235 9.92141 112.108 11.4404H111.647L111.602 11.4174V9.39241H107.555V25.1724H111.925V17.0984C111.925 14.5224 113.17 12.9114 115.215 12.9114C117.124 12.9114 118.527 14.3374 118.527 16.5914V25.1714H122.897V15.6504C122.898 11.7854 120.368 9.07041 116.87 9.07041Z" fill="white"/>
<path d="M30.806 0.0253906C21.363 0.0253906 13.776 7.66439 13.776 17.0004C13.776 26.4134 21.438 33.9754 30.804 33.9754C40.17 33.9754 47.839 26.3364 47.839 17.0004C47.839 7.66439 40.172 0.0253906 30.806 0.0253906ZM30.806 23.3274C27.323 23.3274 24.46 20.4724 24.46 17.0004C24.46 13.5284 27.323 10.6734 30.806 10.6734C34.289 10.6734 37.153 13.5284 37.153 17.0004C37.075 20.4724 34.289 23.3274 30.806 23.3274ZM13.776 4.95739V29.6484H7.74198L0.000976562 4.95739H13.776Z" fill="white"/>
</svg>
